<?xml version="1.0" encoding="UTF-8"?>
<!DOCTYPE svg PUBLIC "-//W3C//DTD SVG 1.1//EN" "http://www.w3.org/Graphics/SVG/1.1/DTD/svg11.dtd">
<svg xmlns="http://www.w3.org/2000/svg" version="1.1" width="420px" height="594px" style="shape-rendering:geometricPrecision; text-rendering:geometricPrecision; image-rendering:optimizeQuality; fill-rule:evenodd; clip-rule:evenodd" xmlns:xlink="http://www.w3.org/1999/xlink">
<g><path style="opacity:0.946" fill="#f6e39f" d="M 179.5,165.5 C 177.704,164.207 176.037,162.707 174.5,161C 172.5,160.333 170.5,159.667 168.5,159C 160.167,158.333 151.833,158.333 143.5,159C 139.925,159.454 136.925,160.954 134.5,163.5C 134.511,161.983 135.177,160.816 136.5,160C 138.717,158.725 141.051,157.725 143.5,157C 152.167,156.333 160.833,156.333 169.5,157C 174.249,158.254 177.582,161.088 179.5,165.5 Z"/></g>
<g><path style="opacity:1" fill="#ebb63d" d="M 179.5,165.5 C 180.018,176.314 179.351,186.98 177.5,197.5C 174.107,197.062 171.107,197.895 168.5,200C 163.627,200.751 162.294,200.584 164.5,199.5C 164.597,195.554 166.263,192.388 169.5,190C 168.027,189.29 167.36,188.124 167.5,186.5C 172.213,186.532 173.713,184.199 172,179.5C 167.683,177.573 164.183,174.74 161.5,171C 157.74,169.929 154.74,170.929 152.5,174C 149.949,174.002 147.949,174.836 146.5,176.5C 142.936,176.611 140.603,178.278 139.5,181.5C 137.615,183.795 137.115,186.462 138,189.5C 139.011,190.337 140.178,190.67 141.5,190.5C 140.855,193.547 141.855,195.713 144.5,197C 149.202,197.172 153.868,197.672 158.5,198.5C 152.863,199.663 147.196,199.83 141.5,199C 138.667,197.622 136.334,195.789 134.5,193.5C 133.833,193.5 133.167,193.5 132.5,193.5C 132.5,193.167 132.5,192.833 132.5,192.5C 132.05,182.721 132.716,173.054 134.5,163.5C 136.925,160.954 139.925,159.454 143.5,159C 151.833,158.333 160.167,158.333 168.5,159C 170.5,159.667 172.5,160.333 174.5,161C 176.037,162.707 177.704,164.207 179.5,165.5 Z"/></g>
<g><path style="opacity:1" fill="#e4b65e" d="M 167.5,186.5 C 164.825,188.189 162.158,188.523 159.5,187.5C 163.029,185.908 166.695,184.574 170.5,183.5C 170.5,182.167 170.5,180.833 170.5,179.5C 167.927,178.507 165.26,177.674 162.5,177C 160.561,176.092 159.561,174.592 159.5,172.5C 158.178,172.33 157.011,172.663 156,173.5C 154.496,176.684 152.996,179.851 151.5,183C 149.681,183.783 148.348,183.283 147.5,181.5C 148.325,180.614 149.325,180.281 150.5,180.5C 150.5,178.833 150.5,177.167 150.5,175.5C 149.041,175.433 147.708,175.766 146.5,176.5C 147.949,174.836 149.949,174.002 152.5,174C 154.74,170.929 157.74,169.929 161.5,171C 164.183,174.74 167.683,177.573 172,179.5C 173.713,184.199 172.213,186.532 167.5,186.5 Z"/></g>
<g><path style="opacity:0.266" fill="#ddebfe" d="M 363.5,175.5 C 332.832,175.333 302.165,175.5 271.5,176C 270.584,176.278 269.918,176.778 269.5,177.5C 268.167,177.5 266.833,177.5 265.5,177.5C 266.842,176.207 268.509,175.374 270.5,175C 301.669,174.169 332.669,174.336 363.5,175.5 Z"/></g>
<g><path style="opacity:1" fill="#eedfd5" d="M 159.5,187.5 C 158.965,184.762 159.965,182.928 162.5,182C 160.459,180.758 159.293,178.925 159,176.5C 157.056,180.723 155.389,185.056 154,189.5C 152.989,190.337 151.822,190.67 150.5,190.5C 150.5,189.5 150.5,188.5 150.5,187.5C 147.099,186.366 143.766,185.032 140.5,183.5C 139.662,183.158 139.328,182.492 139.5,181.5C 140.603,178.278 142.936,176.611 146.5,176.5C 147.708,175.766 149.041,175.433 150.5,175.5C 150.5,177.167 150.5,178.833 150.5,180.5C 149.325,180.281 148.325,180.614 147.5,181.5C 148.348,183.283 149.681,183.783 151.5,183C 152.996,179.851 154.496,176.684 156,173.5C 157.011,172.663 158.178,172.33 159.5,172.5C 159.561,174.592 160.561,176.092 162.5,177C 165.26,177.674 167.927,178.507 170.5,179.5C 170.5,180.833 170.5,182.167 170.5,183.5C 166.695,184.574 163.029,185.908 159.5,187.5 Z"/></g>
<g><path style="opacity:0.909" fill="#ebce9b" d="M 179.5,165.5 C 181.986,175.312 182.153,185.312 180,195.5C 179.623,196.942 178.79,197.942 177.5,198.5C 177.5,198.167 177.5,197.833 177.5,197.5C 179.351,186.98 180.018,176.314 179.5,165.5 Z"/></g>
<g><path style="opacity:0.933" fill="#8fb1e2" d="M 363.5,175.5 C 369.242,176.249 373.242,179.249 375.5,184.5C 372.718,181.776 369.385,180.109 365.5,179.5C 365.158,178.662 364.492,178.328 363.5,178.5C 363.389,177.883 363.056,177.383 362.5,177C 331.494,176.349 300.494,176.516 269.5,177.5C 269.918,176.778 270.584,176.278 271.5,176C 302.165,175.5 332.832,175.333 363.5,175.5 Z"/></g>
<g><path style="opacity:0.165" fill="#fae8b0" d="M 134.5,163.5 C 132.716,173.054 132.05,182.721 132.5,192.5C 131.344,184.677 131.177,176.677 132,168.5C 132.099,166.347 132.933,164.681 134.5,163.5 Z"/></g>
<g><path style="opacity:1" fill="#6f9ae3" d="M 363.5,178.5 C 332.167,178.5 300.833,178.5 269.5,178.5C 269.674,181.845 268.341,183.012 265.5,182C 263.123,184.508 260.789,187.008 258.5,189.5C 257.508,193.783 257.174,198.116 257.5,202.5C 256.35,197.684 256.184,192.684 257,187.5C 257.608,185.934 258.442,184.6 259.5,183.5C 261.833,181.833 263.833,179.833 265.5,177.5C 266.833,177.5 268.167,177.5 269.5,177.5C 300.494,176.516 331.494,176.349 362.5,177C 363.056,177.383 363.389,177.883 363.5,178.5 Z"/></g>
<g><path style="opacity:0.373" fill="#dfebfe" d="M 265.5,177.5 C 263.833,179.833 261.833,181.833 259.5,183.5C 260.5,180.5 262.5,178.5 265.5,177.5 Z"/></g>
<g><path style="opacity:1" fill="#d8a35d" d="M 159.5,187.5 C 158.71,186.391 158.21,185.058 158,183.5C 156.688,185.955 155.522,188.455 154.5,191C 152.527,191.495 150.527,191.662 148.5,191.5C 147.923,188.355 145.923,186.855 142.5,187C 141.695,185.887 141.028,184.721 140.5,183.5C 143.766,185.032 147.099,186.366 150.5,187.5C 150.5,188.5 150.5,189.5 150.5,190.5C 151.822,190.67 152.989,190.337 154,189.5C 155.389,185.056 157.056,180.723 159,176.5C 159.293,178.925 160.459,180.758 162.5,182C 159.965,182.928 158.965,184.762 159.5,187.5 Z"/></g>
<g><path style="opacity:1" fill="#4f7ad6" d="M 363.5,178.5 C 364.492,178.328 365.158,178.662 365.5,179.5C 345.164,179.333 324.831,179.5 304.5,180C 303.062,180.219 301.729,180.719 300.5,181.5C 302.059,183.131 304.059,183.964 306.5,184C 306.043,184.414 305.709,184.914 305.5,185.5C 306.946,187.618 307.613,189.951 307.5,192.5C 306.5,192.5 305.5,192.5 304.5,192.5C 304.427,186.454 301.427,184.287 295.5,186C 292.595,189.374 292.928,192.374 296.5,195C 298.598,195.678 300.598,195.511 302.5,194.5C 301.448,196.256 299.781,196.923 297.5,196.5C 295.906,196.08 294.406,195.414 293,194.5C 290.579,196.493 288.079,196.826 285.5,195.5C 292.021,195.008 293.688,192.008 290.5,186.5C 284.201,184.459 281.534,186.792 282.5,193.5C 281.5,193.5 280.5,193.5 279.5,193.5C 281.009,185.516 278.175,183.516 271,187.5C 270.505,189.473 270.338,191.473 270.5,193.5C 269.351,193.209 268.684,192.376 268.5,191C 269.125,189.159 269.292,187.326 269,185.5C 268.163,183.993 266.996,183.493 265.5,184C 263.272,186.041 261.772,188.541 261,191.5C 260.586,191.043 260.086,190.709 259.5,190.5C 258.511,194.107 258.177,197.774 258.5,201.5C 258.5,201.833 258.5,202.167 258.5,202.5C 258.167,202.5 257.833,202.5 257.5,202.5C 257.174,198.116 257.508,193.783 258.5,189.5C 260.789,187.008 263.123,184.508 265.5,182C 268.341,183.012 269.674,181.845 269.5,178.5C 300.833,178.5 332.167,178.5 363.5,178.5 Z"/></g>
<g><path style="opacity:0.925" fill="#b5c9e8" d="M 375.5,184.5 C 377.163,186.438 377.829,188.772 377.5,191.5C 376.076,189.485 375.41,187.152 375.5,184.5 Z"/></g>
<g><path style="opacity:1" fill="#4474db" d="M 365.5,179.5 C 369.385,180.109 372.718,181.776 375.5,184.5C 375.41,187.152 376.076,189.485 377.5,191.5C 377.5,191.833 377.5,192.167 377.5,192.5C 377.384,195.86 377.051,199.193 376.5,202.5C 376.5,203.167 376.167,203.5 375.5,203.5C 375.5,202.833 375.5,202.167 375.5,201.5C 372.484,200.105 369.317,198.772 366,197.5C 350.461,198.421 334.794,198.421 319,197.5C 315.713,199.443 312.38,200.11 309,199.5C 308.667,198.833 308.333,198.167 308,197.5C 305.978,197.212 303.811,197.546 301.5,198.5C 299.829,198.332 298.496,197.665 297.5,196.5C 299.781,196.923 301.448,196.256 302.5,194.5C 303.167,193.833 303.833,193.167 304.5,192.5C 305.5,192.5 306.5,192.5 307.5,192.5C 307.613,189.951 306.946,187.618 305.5,185.5C 305.709,184.914 306.043,184.414 306.5,184C 304.059,183.964 302.059,183.131 300.5,181.5C 301.729,180.719 303.062,180.219 304.5,180C 324.831,179.5 345.164,179.333 365.5,179.5 Z"/></g>
<g><path style="opacity:1" fill="#dee0f3" d="M 279.5,193.5 C 276.617,196.09 273.617,196.09 270.5,193.5C 270.338,191.473 270.505,189.473 271,187.5C 278.175,183.516 281.009,185.516 279.5,193.5 Z"/></g>
<g><path style="opacity:1" fill="#dddfef" d="M 304.5,192.5 C 303.833,193.167 303.167,193.833 302.5,194.5C 300.598,195.511 298.598,195.678 296.5,195C 292.928,192.374 292.595,189.374 295.5,186C 301.427,184.287 304.427,186.454 304.5,192.5 Z"/></g>
<g><path style="opacity:1" fill="#e1e3f0" d="M 285.5,195.5 C 284.5,194.833 283.5,194.167 282.5,193.5C 281.534,186.792 284.201,184.459 290.5,186.5C 293.688,192.008 292.021,195.008 285.5,195.5 Z"/></g>
<g><path style="opacity:1" fill="#eaad3a" d="M 139.5,181.5 C 139.328,182.492 139.662,183.158 140.5,183.5C 141.028,184.721 141.695,185.887 142.5,187C 145.923,186.855 147.923,188.355 148.5,191.5C 150.527,191.662 152.527,191.495 154.5,191C 155.522,188.455 156.688,185.955 158,183.5C 158.21,185.058 158.71,186.391 159.5,187.5C 162.158,188.523 164.825,188.189 167.5,186.5C 167.36,188.124 168.027,189.29 169.5,190C 166.263,192.388 164.597,195.554 164.5,199.5C 162.294,200.584 163.627,200.751 168.5,200C 171.107,197.895 174.107,197.062 177.5,197.5C 177.5,197.833 177.5,198.167 177.5,198.5C 177.19,200.144 176.19,201.144 174.5,201.5C 164.194,202.567 153.86,202.733 143.5,202C 141.713,200.681 139.713,199.848 137.5,199.5C 135.461,198.089 134.461,196.089 134.5,193.5C 136.334,195.789 138.667,197.622 141.5,199C 147.196,199.83 152.863,199.663 158.5,198.5C 153.868,197.672 149.202,197.172 144.5,197C 141.855,195.713 140.855,193.547 141.5,190.5C 140.178,190.67 139.011,190.337 138,189.5C 137.115,186.462 137.615,183.795 139.5,181.5 Z"/></g>
<g><path style="opacity:1" fill="#e7c38d" d="M 132.5,193.5 C 133.167,193.5 133.833,193.5 134.5,193.5C 134.461,196.089 135.461,198.089 137.5,199.5C 138.167,200.5 138.833,201.5 139.5,202.5C 135.496,200.837 133.163,197.837 132.5,193.5 Z"/></g>
<g><path style="opacity:1" fill="#3e6ad5" d="M 270.5,193.5 C 273.617,196.09 276.617,196.09 279.5,193.5C 280.5,193.5 281.5,193.5 282.5,193.5C 283.5,194.167 284.5,194.833 285.5,195.5C 288.079,196.826 290.579,196.493 293,194.5C 294.406,195.414 295.906,196.08 297.5,196.5C 298.496,197.665 299.829,198.332 301.5,198.5C 303.811,197.546 305.978,197.212 308,197.5C 308.333,198.167 308.667,198.833 309,199.5C 312.38,200.11 315.713,199.443 319,197.5C 334.794,198.421 350.461,198.421 366,197.5C 369.317,198.772 372.484,200.105 375.5,201.5C 336.5,201.5 297.5,201.5 258.5,201.5C 258.177,197.774 258.511,194.107 259.5,190.5C 260.086,190.709 260.586,191.043 261,191.5C 261.772,188.541 263.272,186.041 265.5,184C 266.996,183.493 268.163,183.993 269,185.5C 269.292,187.326 269.125,189.159 268.5,191C 268.684,192.376 269.351,193.209 270.5,193.5 Z"/></g>
<g><path style="opacity:0.639" fill="#bac6e8" d="M 377.5,192.5 C 378.865,195.959 378.531,199.292 376.5,202.5C 377.051,199.193 377.384,195.86 377.5,192.5 Z"/></g>
<g><path style="opacity:1" fill="#cf9757" d="M 137.5,199.5 C 139.713,199.848 141.713,200.681 143.5,202C 153.86,202.733 164.194,202.567 174.5,201.5C 173.4,202.558 172.066,203.392 170.5,204C 161.167,204.667 151.833,204.667 142.5,204C 141.473,203.487 140.473,202.987 139.5,202.5C 138.833,201.5 138.167,200.5 137.5,199.5 Z"/></g>
<g><path style="opacity:1" fill="#2340a6" d="M 258.5,202.5 C 258.5,202.167 258.5,201.833 258.5,201.5C 297.5,201.5 336.5,201.5 375.5,201.5C 375.5,202.167 375.5,202.833 375.5,203.5C 374.5,203.5 373.5,203.5 372.5,203.5C 335.5,203.5 298.5,203.5 261.5,203.5C 260.391,203.443 259.391,203.11 258.5,202.5 Z"/></g>
<g><path style="opacity:1" fill="#403f6d" d="M 261.5,204.5 C 261.5,204.167 261.5,203.833 261.5,203.5C 298.5,203.5 335.5,203.5 372.5,203.5C 372.5,203.833 372.5,204.167 372.5,204.5C 335.5,205.833 298.5,205.833 261.5,204.5 Z"/></g>
<g><path style="opacity:1" fill="#5d5968" d="M 261.5,204.5 C 298.5,205.833 335.5,205.833 372.5,204.5C 372.5,220.5 372.5,236.5 372.5,252.5C 371.167,257.167 368.167,260.167 363.5,261.5C 362.833,261.5 362.167,261.5 361.5,261.5C 361.082,260.778 360.416,260.278 359.5,260C 330.33,259.832 301.33,259.332 272.5,258.5C 301.502,258.667 330.502,258.5 359.5,258C 362.376,257.562 365.043,256.562 367.5,255C 368.577,247.261 369.243,239.261 369.5,231C 369.333,225.167 369.167,219.333 369,213.5C 366.628,211.352 363.794,210.018 360.5,209.5C 358.578,210.96 357.911,212.627 358.5,214.5C 357.833,213.167 357.167,211.833 356.5,210.5C 355.903,214.312 354.903,217.978 353.5,221.5C 352.265,220.66 351.265,219.66 350.5,218.5C 340.652,218.827 330.986,218.494 321.5,217.5C 331.681,217.827 341.681,217.494 351.5,216.5C 351.5,215.167 351.5,213.833 351.5,212.5C 346.712,211.172 341.546,210.505 336,210.5C 330.256,210.549 324.756,211.216 319.5,212.5C 319.196,211.85 318.863,211.183 318.5,210.5C 312.56,207.047 306.393,206.713 300,209.5C 298.07,209.092 296.236,208.425 294.5,207.5C 291.794,208.81 288.961,209.81 286,210.5C 280.613,209.929 274.78,209.929 268.5,210.5C 267.449,209.115 266.116,208.115 264.5,207.5C 263.334,221.488 263.167,235.488 264,249.5C 264.573,251.641 265.406,253.641 266.5,255.5C 265.833,255.5 265.167,255.5 264.5,255.5C 263.5,254.167 262.5,252.833 261.5,251.5C 261.5,235.833 261.5,220.167 261.5,204.5 Z"/></g>
<g><path style="opacity:1" fill="#615e71" d="M 319.5,212.5 C 310.396,210.201 301.396,210.201 292.5,212.5C 291.07,214.455 291.403,216.121 293.5,217.5C 300.989,218.656 308.655,218.822 316.5,218C 318.17,215.114 319.837,214.948 321.5,217.5C 330.986,218.494 340.652,218.827 350.5,218.5C 334.256,219.4 317.923,220.733 301.5,222.5C 300.566,223.568 300.232,224.901 300.5,226.5C 310.833,226.5 321.167,226.5 331.5,226.5C 331.279,227.735 330.612,228.735 329.5,229.5C 327.5,229.833 325.5,230.167 323.5,230.5C 316.899,228.913 310.232,228.413 303.5,229C 304.793,229.49 306.127,229.657 307.5,229.5C 307.5,230.833 307.5,232.167 307.5,233.5C 306.022,233.238 304.689,233.571 303.5,234.5C 305.755,235.194 307.755,236.194 309.5,237.5C 317.057,237.848 324.39,238.848 331.5,240.5C 324.833,240.5 318.167,240.5 311.5,240.5C 311.5,242.167 311.5,243.833 311.5,245.5C 310.167,245.5 308.833,245.5 307.5,245.5C 307.325,248.329 308.658,249.996 311.5,250.5C 310.5,250.833 309.5,251.167 308.5,251.5C 299.501,248.339 291.001,249.005 283,253.5C 279.114,253.727 275.114,253.393 271,252.5C 272.008,254.366 271.508,255.699 269.5,256.5C 268.609,255.89 267.609,255.557 266.5,255.5C 265.406,253.641 264.573,251.641 264,249.5C 263.167,235.488 263.334,221.488 264.5,207.5C 266.116,208.115 267.449,209.115 268.5,210.5C 274.78,209.929 280.613,209.929 286,210.5C 288.961,209.81 291.794,208.81 294.5,207.5C 296.236,208.425 298.07,209.092 300,209.5C 306.393,206.713 312.56,207.047 318.5,210.5C 318.863,211.183 319.196,211.85 319.5,212.5 Z"/></g>
<g><path style="opacity:1" fill="#646071" d="M 272.5,258.5 C 270.973,258.573 269.973,257.906 269.5,256.5C 271.508,255.699 272.008,254.366 271,252.5C 275.114,253.393 279.114,253.727 283,253.5C 291.001,249.005 299.501,248.339 308.5,251.5C 309.5,251.167 310.5,250.833 311.5,250.5C 308.658,249.996 307.325,248.329 307.5,245.5C 308.833,245.5 310.167,245.5 311.5,245.5C 311.369,246.376 311.702,247.043 312.5,247.5C 320.962,246.861 329.296,246.194 337.5,245.5C 337.5,244.5 337.5,243.5 337.5,242.5C 336.082,240.692 334.082,240.025 331.5,240.5C 324.39,238.848 317.057,237.848 309.5,237.5C 307.755,236.194 305.755,235.194 303.5,234.5C 304.689,233.571 306.022,233.238 307.5,233.5C 307.5,232.167 307.5,230.833 307.5,229.5C 306.127,229.657 304.793,229.49 303.5,229C 310.232,228.413 316.899,228.913 323.5,230.5C 325.5,230.167 327.5,229.833 329.5,229.5C 330.612,228.735 331.279,227.735 331.5,226.5C 331.737,225.209 331.404,224.209 330.5,223.5C 321.014,222.506 311.348,222.173 301.5,222.5C 317.923,220.733 334.256,219.4 350.5,218.5C 351.265,219.66 352.265,220.66 353.5,221.5C 354.903,217.978 355.903,214.312 356.5,210.5C 357.167,211.833 357.833,213.167 358.5,214.5C 357.911,212.627 358.578,210.96 360.5,209.5C 363.794,210.018 366.628,211.352 369,213.5C 369.167,219.333 369.333,225.167 369.5,231C 369.243,239.261 368.577,247.261 367.5,255C 365.043,256.562 362.376,257.562 359.5,258C 330.502,258.5 301.502,258.667 272.5,258.5 Z"/></g>
<g><path style="opacity:0.596" fill="#adabaa" d="M 193.5,210.5 C 192.738,212.262 191.404,213.262 189.5,213.5C 190.262,211.738 191.596,210.738 193.5,210.5 Z"/></g>
<g><path style="opacity:1" fill="#9e7a4a" d="M 292.5,212.5 C 300.684,212.174 308.684,212.508 316.5,213.5C 308.833,213.5 301.167,213.5 293.5,213.5C 293.5,214.5 293.5,215.5 293.5,216.5C 300.833,216.5 308.167,216.5 315.5,216.5C 308.352,217.492 301.019,217.825 293.5,217.5C 291.403,216.121 291.07,214.455 292.5,212.5 Z"/></g>
<g><path style="opacity:1" fill="#6f584f" d="M 319.5,212.5 C 324.756,211.216 330.256,210.549 336,210.5C 341.546,210.505 346.712,211.172 351.5,212.5C 341.5,212.5 331.5,212.5 321.5,212.5C 321.5,213.833 321.5,215.167 321.5,216.5C 331.5,216.5 341.5,216.5 351.5,216.5C 341.681,217.494 331.681,217.827 321.5,217.5C 319.837,214.948 318.17,215.114 316.5,218C 308.655,218.822 300.989,218.656 293.5,217.5C 301.019,217.825 308.352,217.492 315.5,216.5C 316.404,215.791 316.737,214.791 316.5,213.5C 308.684,212.508 300.684,212.174 292.5,212.5C 301.396,210.201 310.396,210.201 319.5,212.5 Z"/></g>
<g><path style="opacity:1" fill="#585657" d="M 235.5,221.5 C 234.175,220.047 233.342,220.381 233,222.5C 231.082,221.458 229.249,220.292 227.5,219C 228.5,218.667 229.5,218.333 230.5,218C 228.782,217.654 227.115,217.154 225.5,216.5C 225.002,217.603 224.669,218.603 224.5,219.5C 219.147,216.89 213.48,215.89 207.5,216.5C 203.803,217.008 200.136,217.674 196.5,218.5C 194.875,215.745 195.208,213.245 197.5,211C 196.207,210.51 194.873,210.343 193.5,210.5C 203.21,204.029 213.21,203.862 223.5,210C 225.213,211.378 226.547,213.045 227.5,215C 231.566,215.576 234.233,217.743 235.5,221.5 Z"/></g>
<g><path style="opacity:1" fill="#daab56" d="M 351.5,212.5 C 351.5,213.833 351.5,215.167 351.5,216.5C 341.5,216.5 331.5,216.5 321.5,216.5C 321.5,215.167 321.5,213.833 321.5,212.5C 331.5,212.5 341.5,212.5 351.5,212.5 Z"/></g>
<g><path style="opacity:1" fill="#dad6e1" d="M 281.5,211.5 C 286.493,211.997 287.493,214.164 284.5,218C 279.395,217.751 278.395,215.584 281.5,211.5 Z"/></g>
<g><path style="opacity:1" fill="#e3ad52" d="M 316.5,213.5 C 316.737,214.791 316.404,215.791 315.5,216.5C 308.167,216.5 300.833,216.5 293.5,216.5C 293.5,215.5 293.5,214.5 293.5,213.5C 301.167,213.5 308.833,213.5 316.5,213.5 Z"/></g>
<g><path style="opacity:0.303" fill="#dedddf" d="M 372.5,203.5 C 373.5,203.5 374.5,203.5 375.5,203.5C 373.863,219.77 372.863,236.103 372.5,252.5C 372.5,236.5 372.5,220.5 372.5,204.5C 372.5,204.167 372.5,203.833 372.5,203.5 Z"/></g>
<g><path style="opacity:1" fill="#373435" d="M 193.5,210.5 C 194.873,210.343 196.207,210.51 197.5,211C 195.208,213.245 194.875,215.745 196.5,218.5C 200.136,217.674 203.803,217.008 207.5,216.5C 211.957,217.989 216.624,219.156 221.5,220C 223.305,220.972 224.972,222.139 226.5,223.5C 220.862,224.33 215.196,224.83 209.5,225C 203.089,226.579 196.756,228.079 190.5,229.5C 190.33,228.178 190.663,227.011 191.5,226C 194.715,225.726 197.381,224.393 199.5,222C 198.5,221.667 197.5,221.333 196.5,221C 197.696,220.346 197.696,219.846 196.5,219.5C 192.592,221.245 189.092,223.578 186,226.5C 184.267,224.042 183.1,224.375 182.5,227.5C 183.258,221.984 185.591,217.317 189.5,213.5C 191.404,213.262 192.738,212.262 193.5,210.5 Z"/></g>
<g><path style="opacity:0.818" fill="#a1c0e6" d="M 54.5,220.5 C 78.6632,219.337 102.997,219.17 127.5,220C 128.416,220.278 129.082,220.778 129.5,221.5C 127.5,221.5 125.5,221.5 123.5,221.5C 100.673,220.502 77.6727,220.169 54.5,220.5 Z"/></g>
<g><path style="opacity:1" fill="#85ace5" d="M 54.5,220.5 C 77.6727,220.169 100.673,220.502 123.5,221.5C 100.661,221.169 77.9939,221.503 55.5,222.5C 51.8333,224.5 48.1667,226.5 44.5,228.5C 46.3382,223.998 49.6715,221.331 54.5,220.5 Z"/></g>
<g><path style="opacity:1" fill="#719de6" d="M 55.5,222.5 C 77.9939,221.503 100.661,221.169 123.5,221.5C 125.5,221.5 127.5,221.5 129.5,221.5C 133.429,222.431 136.095,224.764 137.5,228.5C 136.038,227.542 134.705,226.376 133.5,225C 131.285,224.83 129.285,224.163 127.5,223C 103.502,222.5 79.5023,222.333 55.5,222.5 Z"/></g>
<g><path style="opacity:0.518" fill="#9d9d9d" d="M 235.5,221.5 C 236.906,221.973 237.573,222.973 237.5,224.5C 236.094,224.027 235.427,223.027 235.5,221.5 Z"/></g>
<g><path style="opacity:0.102" fill="#f2f3fa" d="M 257.5,202.5 C 257.833,202.5 258.167,202.5 258.5,202.5C 259.391,203.11 260.391,203.443 261.5,203.5C 261.5,203.833 261.5,204.167 261.5,204.5C 261.5,220.167 261.5,235.833 261.5,251.5C 260.833,235.995 260.167,220.328 259.5,204.5C 258.478,204.145 257.811,203.478 257.5,202.5 Z"/></g>
<g><path style="opacity:1" fill="#dddae4" d="M 280.5,221.5 C 284.509,221.014 286.342,222.68 286,226.5C 280.42,228.752 278.587,227.085 280.5,221.5 Z"/></g>
<g><path style="opacity:1" fill="#4473dc" d="M 138.5,240.5 C 137.751,241.531 137.085,242.698 136.5,244C 117.833,244.667 99.1667,244.667 80.5,244C 82.6864,242.691 84.8531,242.524 87,243.5C 88.669,241.831 89.5023,239.831 89.5,237.5C 88.9232,234.45 90.0899,232.45 93,231.5C 93.662,229.187 94.162,226.854 94.5,224.5C 105.505,224.333 116.505,224.5 127.5,225C 129.78,225.703 131.78,226.869 133.5,228.5C 133.974,230.862 134.308,233.195 134.5,235.5C 135.719,234.737 136.719,233.737 137.5,232.5C 138.48,235.086 138.813,237.753 138.5,240.5 Z"/></g>
<g><path style="opacity:1" fill="#211d20" d="M 207.5,216.5 C 213.48,215.89 219.147,216.89 224.5,219.5C 224.669,218.603 225.002,217.603 225.5,216.5C 227.115,217.154 228.782,217.654 230.5,218C 229.5,218.333 228.5,218.667 227.5,219C 229.249,220.292 231.082,221.458 233,222.5C 233.342,220.381 234.175,220.047 235.5,221.5C 235.427,223.027 236.094,224.027 237.5,224.5C 238.633,226.055 239.299,227.889 239.5,230C 239.054,233.35 238.388,236.517 237.5,239.5C 236.675,243.647 236.175,247.981 236,252.5C 235.581,253.672 234.915,254.672 234,255.5C 233.826,250.316 233.326,245.316 232.5,240.5C 232.196,237.421 231.196,234.587 229.5,232C 225.278,231.683 221.278,232.516 217.5,234.5C 207.424,236.519 197.424,238.852 187.5,241.5C 187.666,245.846 187.499,250.179 187,254.5C 186.333,255.833 185.667,255.833 185,254.5C 183.758,246.915 182.925,239.248 182.5,231.5C 182.5,230.167 182.5,228.833 182.5,227.5C 183.1,224.375 184.267,224.042 186,226.5C 189.092,223.578 192.592,221.245 196.5,219.5C 197.696,219.846 197.696,220.346 196.5,221C 197.5,221.333 198.5,221.667 199.5,222C 197.381,224.393 194.715,225.726 191.5,226C 190.663,227.011 190.33,228.178 190.5,229.5C 196.756,228.079 203.089,226.579 209.5,225C 215.196,224.83 220.862,224.33 226.5,223.5C 224.972,222.139 223.305,220.972 221.5,220C 216.624,219.156 211.957,217.989 207.5,216.5 Z"/></g>
<g><path style="opacity:1" fill="#4e9fc3" d="M 301.5,222.5 C 311.348,222.173 321.014,222.506 330.5,223.5C 331.404,224.209 331.737,225.209 331.5,226.5C 321.167,226.5 310.833,226.5 300.5,226.5C 300.232,224.901 300.566,223.568 301.5,222.5 Z"/></g>
<g><path style="opacity:1" fill="#44b8db" d="M 330.5,223.5 C 326.049,224.827 321.216,225.494 316,225.5C 311.167,225.167 306.333,224.833 301.5,224.5C 311.144,223.502 320.81,223.168 330.5,223.5 Z"/></g>
<g><path style="opacity:1" fill="#527dd9" d="M 55.5,222.5 C 79.5023,222.333 103.502,222.5 127.5,223C 129.285,224.163 131.285,224.83 133.5,225C 134.705,226.376 136.038,227.542 137.5,228.5C 139.961,231.638 140.961,235.305 140.5,239.5C 140.333,241.833 140.167,244.167 140,246.5C 139.184,247.823 138.017,248.489 136.5,248.5C 136.167,248.5 135.833,248.5 135.5,248.5C 133.901,248.768 132.568,248.434 131.5,247.5C 134.152,247.59 136.485,246.924 138.5,245.5C 138.5,243.833 138.5,242.167 138.5,240.5C 138.813,237.753 138.48,235.086 137.5,232.5C 136.719,233.737 135.719,234.737 134.5,235.5C 134.308,233.195 133.974,230.862 133.5,228.5C 131.78,226.869 129.78,225.703 127.5,225C 116.505,224.5 105.505,224.333 94.5,224.5C 94.162,226.854 93.662,229.187 93,231.5C 90.0899,232.45 88.9232,234.45 89.5,237.5C 89.1667,237.5 88.8333,237.5 88.5,237.5C 88.6704,229.128 85.5037,227.462 79,232.5C 78.3603,234.265 78.5269,235.932 79.5,237.5C 78.391,237.557 77.391,237.89 76.5,238.5C 78.6996,233.616 77.1996,230.616 72,229.5C 67.6368,230.371 65.8035,233.038 66.5,237.5C 66.1667,237.5 65.8333,237.5 65.5,237.5C 65.9366,230.69 62.9366,228.357 56.5,230.5C 55.6258,232.747 55.2924,235.08 55.5,237.5C 53.1198,235.763 51.4531,233.43 50.5,230.5C 49.675,229.614 48.675,229.281 47.5,229.5C 47.33,230.822 47.6634,231.989 48.5,233C 47.3333,233.5 46.5,234.333 46,235.5C 45.6582,233.381 44.8249,233.047 43.5,234.5C 43.5172,232.435 43.8505,230.435 44.5,228.5C 48.1667,226.5 51.8333,224.5 55.5,222.5 Z"/></g>
<g><path style="opacity:1" fill="#dbd8e1" d="M 280.5,231.5 C 285.123,230.408 286.956,232.075 286,236.5C 280.42,238.752 278.587,237.085 280.5,231.5 Z"/></g>
<g><path style="opacity:1" fill="#cfa154" d="M 331.5,235.5 C 324.254,236.464 316.92,236.797 309.5,236.5C 309.5,234.833 309.5,233.167 309.5,231.5C 316.508,231.334 323.508,231.5 330.5,232C 331.337,233.011 331.67,234.178 331.5,235.5 Z"/></g>
<g><path style="opacity:1" fill="#e4b452" d="M 335.5,232.5 C 340.5,232.5 345.5,232.5 350.5,232.5C 350.5,233.5 350.5,234.5 350.5,235.5C 345.5,235.5 340.5,235.5 335.5,235.5C 334.167,234.5 334.167,233.5 335.5,232.5 Z"/></g>
<g><path style="opacity:1" fill="#dddff0" d="M 76.5,238.5 C 72.8857,241.313 69.5524,240.979 66.5,237.5C 65.8035,233.038 67.6368,230.371 72,229.5C 77.1996,230.616 78.6996,233.616 76.5,238.5 Z"/></g>
<g><path style="opacity:1" fill="#dfe1f1" d="M 88.5,237.5 C 85.5,241.5 82.5,241.5 79.5,237.5C 78.5269,235.932 78.3603,234.265 79,232.5C 85.5037,227.462 88.6704,229.128 88.5,237.5 Z"/></g>
<g><path style="opacity:1" fill="#9a7242" d="M 335.5,232.5 C 340.64,231.512 345.974,231.179 351.5,231.5C 351.5,233.5 351.5,235.5 351.5,237.5C 345.729,238.113 340.396,237.446 335.5,235.5C 340.5,235.5 345.5,235.5 350.5,235.5C 350.5,234.5 350.5,233.5 350.5,232.5C 345.5,232.5 340.5,232.5 335.5,232.5 Z"/></g>
<g><path style="opacity:1" fill="#5e3f24" d="M 331.5,235.5 C 324.576,237.463 317.243,238.13 309.5,237.5C 309.5,237.167 309.5,236.833 309.5,236.5C 316.92,236.797 324.254,236.464 331.5,235.5 Z"/></g>
<g><path style="opacity:1" fill="#d4dcf2" d="M 65.5,237.5 C 62.1198,241.482 58.7865,241.482 55.5,237.5C 55.2924,235.08 55.6258,232.747 56.5,230.5C 62.9366,228.357 65.9366,230.69 65.5,237.5 Z"/></g>
<g><path style="opacity:1" fill="#496d87" d="M 331.5,240.5 C 334.082,240.025 336.082,240.692 337.5,242.5C 329.167,242.5 320.833,242.5 312.5,242.5C 312.5,243.5 312.5,244.5 312.5,245.5C 320.833,245.5 329.167,245.5 337.5,245.5C 329.296,246.194 320.962,246.861 312.5,247.5C 311.702,247.043 311.369,246.376 311.5,245.5C 311.5,243.833 311.5,242.167 311.5,240.5C 318.167,240.5 324.833,240.5 331.5,240.5 Z"/></g>
<g><path style="opacity:1" fill="#dbb9a4" d="M 232.5,240.5 C 232.823,244.226 232.489,247.893 231.5,251.5C 230.817,251.863 230.15,252.196 229.5,252.5C 228.833,252.5 228.167,252.5 227.5,252.5C 224.038,251.518 220.371,251.185 216.5,251.5C 213.091,251.733 210.591,253.4 209,256.5C 207.272,253.308 205.439,250.308 203.5,247.5C 203.5,247.167 203.5,246.833 203.5,246.5C 201.958,245.837 200.291,245.17 198.5,244.5C 200.348,243.583 202.348,242.083 204.5,240C 209.393,239.211 213.726,237.378 217.5,234.5C 221.278,232.516 225.278,231.683 229.5,232C 231.196,234.587 232.196,237.421 232.5,240.5 Z"/></g>
<g><path style="opacity:0.718" fill="#88a1db" d="M 44.5,228.5 C 43.8505,230.435 43.5172,232.435 43.5,234.5C 42.5701,238.4 42.2367,242.4 42.5,246.5C 41.3516,242.019 41.1849,237.352 42,232.5C 42.2004,230.68 43.0337,229.347 44.5,228.5 Z"/></g>
<g><path style="opacity:1" fill="#3e69d2" d="M 55.5,237.5 C 58.7865,241.482 62.1198,241.482 65.5,237.5C 65.8333,237.5 66.1667,237.5 66.5,237.5C 69.5524,240.979 72.8857,241.313 76.5,238.5C 77.391,237.89 78.391,237.557 79.5,237.5C 82.5,241.5 85.5,241.5 88.5,237.5C 88.8333,237.5 89.1667,237.5 89.5,237.5C 89.5023,239.831 88.669,241.831 87,243.5C 84.8531,242.524 82.6864,242.691 80.5,244C 99.1667,244.667 117.833,244.667 136.5,244C 137.085,242.698 137.751,241.531 138.5,240.5C 138.5,242.167 138.5,243.833 138.5,245.5C 107.165,245.333 75.8316,245.5 44.5,246C 43.944,246.383 43.6107,246.883 43.5,247.5C 42.8333,247.5 42.5,247.167 42.5,246.5C 42.2367,242.4 42.5701,238.4 43.5,234.5C 44.8249,233.047 45.6582,233.381 46,235.5C 46.5,234.333 47.3333,233.5 48.5,233C 47.6634,231.989 47.33,230.822 47.5,229.5C 48.675,229.281 49.675,229.614 50.5,230.5C 51.4531,233.43 53.1198,235.763 55.5,237.5 Z"/></g>
<g><path style="opacity:1" fill="#dedae7" d="M 280.5,241.5 C 286.209,240.678 287.543,242.511 284.5,247C 279.728,247.81 278.395,245.977 280.5,241.5 Z"/></g>
<g><path style="opacity:1" fill="#4cb3d7" d="M 307.5,245.5 C 302.5,245.5 297.5,245.5 292.5,245.5C 292.5,244.5 292.5,243.5 292.5,242.5C 297.5,242.5 302.5,242.5 307.5,242.5C 307.5,243.5 307.5,244.5 307.5,245.5 Z"/></g>
<g><path style="opacity:1" fill="#4cb3d9" d="M 337.5,242.5 C 337.5,243.5 337.5,244.5 337.5,245.5C 329.167,245.5 320.833,245.5 312.5,245.5C 312.5,244.5 312.5,243.5 312.5,242.5C 320.833,242.5 329.167,242.5 337.5,242.5 Z"/></g>
<g><path style="opacity:1" fill="#2645b4" d="M 138.5,245.5 C 136.485,246.924 134.152,247.59 131.5,247.5C 102.167,247.5 72.8333,247.5 43.5,247.5C 43.6107,246.883 43.944,246.383 44.5,246C 75.8316,245.5 107.165,245.333 138.5,245.5 Z"/></g>
<g><path style="opacity:1" fill="#333c77" d="M 43.5,247.5 C 72.8333,247.5 102.167,247.5 131.5,247.5C 132.568,248.434 133.901,248.768 135.5,248.5C 135.5,248.833 135.5,249.167 135.5,249.5C 105.833,249.5 76.1667,249.5 46.5,249.5C 46.5,248.833 46.1667,248.5 45.5,248.5C 44.5084,248.672 43.8417,248.338 43.5,247.5 Z"/></g>
<g><path style="opacity:1" fill="#362321" d="M 203.5,246.5 C 203.5,246.833 203.5,247.167 203.5,247.5C 202.666,248.748 201.333,249.415 199.5,249.5C 198.167,249.167 196.833,248.833 195.5,248.5C 195.709,247.914 196.043,247.414 196.5,247C 198.81,246.503 201.143,246.337 203.5,246.5 Z"/></g>
<g><path style="opacity:1" fill="#37211a" d="M 217.5,246.5 C 219.527,246.338 221.527,246.505 223.5,247C 223.957,247.414 224.291,247.914 224.5,248.5C 221.833,249.833 219.167,249.833 216.5,248.5C 216.863,247.817 217.196,247.15 217.5,246.5 Z"/></g>
<g><path style="opacity:0.036" fill="#fdfdfe" d="M 135.5,248.5 C 135.833,248.5 136.167,248.5 136.5,248.5C 136.667,281.835 136.5,315.168 136,348.5C 135.722,349.416 135.222,350.082 134.5,350.5C 135.479,317.531 135.812,284.531 135.5,251.5C 135.5,250.833 135.5,250.167 135.5,249.5C 135.5,249.167 135.5,248.833 135.5,248.5 Z"/></g>
<g><path style="opacity:1" fill="#5c596e" d="M 46.5,250.5 C 46.5,250.167 46.5,249.833 46.5,249.5C 76.1667,249.5 105.833,249.5 135.5,249.5C 135.5,250.167 135.5,250.833 135.5,251.5C 134.178,251.33 133.011,251.663 132,252.5C 131.667,254.5 131.333,256.5 131,258.5C 129.818,256.765 128.151,255.765 126,255.5C 123.311,257.247 121.645,259.247 121,261.5C 119.883,260.051 119.216,258.384 119,256.5C 117.989,255.663 116.822,255.33 115.5,255.5C 115.5,257.167 115.5,258.833 115.5,260.5C 113.61,260.297 112.11,260.963 111,262.5C 110.64,260.579 109.806,258.912 108.5,257.5C 106.16,259.625 106.16,261.958 108.5,264.5C 110.776,265.213 113.109,265.713 115.5,266C 105.325,266.17 95.3249,266.67 85.5,267.5C 85.5,268.5 85.5,269.5 85.5,270.5C 95.3194,271.494 105.319,271.827 115.5,271.5C 115.5,272.5 115.5,273.5 115.5,274.5C 107.847,273.168 100.18,273.168 92.5,274.5C 90.223,273.522 87.8897,272.855 85.5,272.5C 83.5891,272.426 82.4224,271.426 82,269.5C 81.5045,267.527 81.3379,265.527 81.5,263.5C 79.901,263.768 78.5676,263.434 77.5,262.5C 85.6841,262.826 93.6841,262.492 101.5,261.5C 103.8,260.256 105.134,258.256 105.5,255.5C 101.912,253.71 98.2454,253.377 94.5,254.5C 92.8685,253.703 91.3685,252.703 90,251.5C 87.8383,254.124 85.005,255.124 81.5,254.5C 81.719,253.325 81.3857,252.325 80.5,251.5C 73.2063,253.348 65.7063,254.348 58,254.5C 54.3882,255.093 51.5549,253.926 49.5,251C 48.552,250.517 47.552,250.351 46.5,250.5 Z"/></g>
<g><path style="opacity:1" fill="#ceaa9a" d="M 182.5,231.5 C 182.925,239.248 183.758,246.915 185,254.5C 185.667,255.833 186.333,255.833 187,254.5C 187.499,250.179 187.666,245.846 187.5,241.5C 197.424,238.852 207.424,236.519 217.5,234.5C 213.726,237.378 209.393,239.211 204.5,240C 202.348,242.083 200.348,243.583 198.5,244.5C 200.291,245.17 201.958,245.837 203.5,246.5C 201.143,246.337 198.81,246.503 196.5,247C 196.043,247.414 195.709,247.914 195.5,248.5C 196.833,248.833 198.167,249.167 199.5,249.5C 201.333,249.415 202.666,248.748 203.5,247.5C 205.439,250.308 207.272,253.308 209,256.5C 210.591,253.4 213.091,251.733 216.5,251.5C 214.615,253.053 213.615,255.053 213.5,257.5C 211.396,257.799 209.396,257.466 207.5,256.5C 206.352,254.851 205.019,253.351 203.5,252C 199.044,251.133 194.711,251.466 190.5,253C 187.822,258.307 188.822,262.973 193.5,267C 195.473,267.495 197.473,267.662 199.5,267.5C 200.5,267.5 201.5,267.5 202.5,267.5C 202.526,271.367 201.359,272.034 199,269.5C 198,270.167 197,270.833 196,271.5C 194.395,269.936 192.562,269.436 190.5,270C 191.736,272.354 193.403,274.354 195.5,276C 194.944,276.383 194.611,276.883 194.5,277.5C 189.643,272.462 186.309,266.462 184.5,259.5C 180.042,257.58 178.542,254.246 180,249.5C 180.667,248.833 181.333,248.167 182,247.5C 182.058,241.981 182.224,236.648 182.5,231.5 Z"/></g>
<g><path style="opacity:0.153" fill="#dfdbe2" d="M 261.5,251.5 C 262.5,252.833 263.5,254.167 264.5,255.5C 264.5,255.833 264.5,256.167 264.5,256.5C 262.259,255.7 261.259,254.034 261.5,251.5 Z"/></g>
<g><path style="opacity:1" fill="#656171" d="M 46.5,250.5 C 47.552,250.351 48.552,250.517 49.5,251C 51.5549,253.926 54.3882,255.093 58,254.5C 65.7063,254.348 73.2063,253.348 80.5,251.5C 81.3857,252.325 81.719,253.325 81.5,254.5C 85.005,255.124 87.8383,254.124 90,251.5C 91.3685,252.703 92.8685,253.703 94.5,254.5C 98.2454,253.377 101.912,253.71 105.5,255.5C 105.134,258.256 103.8,260.256 101.5,261.5C 101.5,260.167 101.5,258.833 101.5,257.5C 93.1667,257.5 84.8333,257.5 76.5,257.5C 75.0698,259.455 75.4031,261.121 77.5,262.5C 78.5676,263.434 79.901,263.768 81.5,263.5C 81.3379,265.527 81.5045,267.527 82,269.5C 82.4224,271.426 83.5891,272.426 85.5,272.5C 84.9094,273.151 84.2427,273.818 83.5,274.5C 84.6094,276.385 85.4427,278.385 86,280.5C 86.3333,279.833 86.6667,279.167 87,278.5C 87.4955,280.473 87.6621,282.473 87.5,284.5C 88.5,284.5 89.5,284.5 90.5,284.5C 89.6365,282.105 89.6365,279.771 90.5,277.5C 91.086,277.291 91.586,276.957 92,276.5C 92.21,278.058 92.71,279.391 93.5,280.5C 93.5,280.833 93.5,281.167 93.5,281.5C 93.7214,282.735 94.3881,283.735 95.5,284.5C 102.167,285.167 108.833,285.833 115.5,286.5C 113.922,287.298 112.256,287.798 110.5,288C 113.777,290.165 116.444,289.498 118.5,286C 120.5,285.333 122.5,285.333 124.5,286C 125.731,287.183 125.731,288.349 124.5,289.5C 122.751,286.873 121.084,286.873 119.5,289.5C 121.304,290.768 123.304,291.435 125.5,291.5C 125.813,294.247 125.48,296.914 124.5,299.5C 124.123,297.521 122.789,295.688 120.5,294C 119,293.5 117.5,293 116,292.5C 104.96,294.098 93.7936,295.098 82.5,295.5C 80.9924,298.312 81.6591,300.312 84.5,301.5C 93.9913,302.33 103.658,302.83 113.5,303C 116,303.833 116.167,305 114,306.5C 110.459,305.758 106.792,304.758 103,303.5C 94.3351,304.027 85.8351,304.694 77.5,305.5C 76.3509,305.791 75.6842,306.624 75.5,308C 75.6667,308.833 75.8333,309.667 76,310.5C 77.6995,311.406 79.5328,311.739 81.5,311.5C 81.6621,313.527 81.4955,315.527 81,317.5C 80.586,317.957 80.086,318.291 79.5,318.5C 76.2429,316.615 73.4096,314.281 71,311.5C 70.51,312.793 70.3433,314.127 70.5,315.5C 66.2007,313.406 64.2007,314.74 64.5,319.5C 63.2089,320.542 63.2089,321.708 64.5,323C 66.764,323.236 68.9307,323.736 71,324.5C 71.7796,326.387 71.6129,328.054 70.5,329.5C 70.9854,324.841 69.152,323.508 65,325.5C 64.51,326.793 64.3433,328.127 64.5,329.5C 63.3473,330.313 63.3473,331.313 64.5,332.5C 65.9492,333.172 67.2825,333.839 68.5,334.5C 64.9286,334.408 63.7619,336.074 65,339.5C 65.3826,340.056 65.8826,340.389 66.5,340.5C 68.5463,341.965 70.3796,341.632 72,339.5C 72.6838,340.784 72.5171,341.951 71.5,343C 69.8333,343.333 68.1667,343.667 66.5,344C 67.0442,344.717 67.7109,345.217 68.5,345.5C 68.67,346.822 68.3366,347.989 67.5,349C 70.1348,352.282 72.1348,351.782 73.5,347.5C 76.1851,345.17 78.6851,345.17 81,347.5C 91.0966,346.36 101.263,346.36 111.5,347.5C 112.5,346.833 113.5,346.167 114.5,345.5C 115.466,347.396 115.799,349.396 115.5,351.5C 116.833,351.5 118.167,351.5 119.5,351.5C 119.838,348.843 119.171,346.51 117.5,344.5C 119.931,343.64 121.264,341.973 121.5,339.5C 123.604,339.201 125.604,339.534 127.5,340.5C 126.68,342.111 125.346,342.778 123.5,342.5C 123.085,344.747 122.418,346.914 121.5,349C 121.833,349.833 122.167,350.667 122.5,351.5C 125.316,348.874 127.982,348.874 130.5,351.5C 128.692,352.907 126.692,354.074 124.5,355C 100.256,355.472 76.2558,355.639 52.5,355.5C 52.1667,355.5 51.8333,355.5 51.5,355.5C 50.1667,355.5 49.5,354.833 49.5,353.5C 49.0679,352.29 48.4013,351.29 47.5,350.5C 46.5141,317.21 46.1807,283.877 46.5,250.5 Z"/></g>
<g><path style="opacity:0.122" fill="#e7e7ee" d="M 45.5,248.5 C 46.1667,248.5 46.5,248.833 46.5,249.5C 46.5,249.833 46.5,250.167 46.5,250.5C 46.1807,283.877 46.5141,317.21 47.5,350.5C 46.8826,350.389 46.3826,350.056 46,349.5C 45.5,315.835 45.3333,282.168 45.5,248.5 Z"/></g>
<g><path style="opacity:1" fill="#65606f" d="M 135.5,251.5 C 135.812,284.531 135.479,317.531 134.5,350.5C 134.262,352.404 133.262,353.738 131.5,354.5C 131.443,353.391 131.11,352.391 130.5,351.5C 127.982,348.874 125.316,348.874 122.5,351.5C 122.167,350.667 121.833,349.833 121.5,349C 122.418,346.914 123.085,344.747 123.5,342.5C 125.346,342.778 126.68,342.111 127.5,340.5C 125.604,339.534 123.604,339.201 121.5,339.5C 121.264,341.973 119.931,343.64 117.5,344.5C 119.171,346.51 119.838,348.843 119.5,351.5C 118.167,351.5 116.833,351.5 115.5,351.5C 115.799,349.396 115.466,347.396 114.5,345.5C 113.5,346.167 112.5,346.833 111.5,347.5C 101.263,346.36 91.0966,346.36 81,347.5C 78.6851,345.17 76.1851,345.17 73.5,347.5C 72.1348,351.782 70.1348,352.282 67.5,349C 68.3366,347.989 68.67,346.822 68.5,345.5C 83.0589,343.805 97.7255,342.972 112.5,343C 114.059,342.02 115.726,341.187 117.5,340.5C 117.043,339.702 116.376,339.369 115.5,339.5C 115.5,338.167 115.5,336.833 115.5,335.5C 102.833,335.5 90.1667,335.5 77.5,335.5C 90.0064,334.833 102.673,334.167 115.5,333.5C 115.863,332.817 116.196,332.15 116.5,331.5C 118.031,330.075 117.698,329.409 115.5,329.5C 115.5,328.5 115.5,327.5 115.5,326.5C 116.858,327.626 118.192,327.626 119.5,326.5C 118.359,325.575 118.359,324.741 119.5,324C 117.942,323.79 116.609,323.29 115.5,322.5C 118.167,319.833 118.167,317.167 115.5,314.5C 111.054,312.973 106.387,311.973 101.5,311.5C 101.5,310.833 101.5,310.167 101.5,309.5C 102.434,308.432 102.768,307.099 102.5,305.5C 94.1667,305.5 85.8333,305.5 77.5,305.5C 85.8351,304.694 94.3351,304.027 103,303.5C 106.792,304.758 110.459,305.758 114,306.5C 116.167,305 116,303.833 113.5,303C 103.658,302.83 93.9913,302.33 84.5,301.5C 81.6591,300.312 80.9924,298.312 82.5,295.5C 93.7936,295.098 104.96,294.098 116,292.5C 117.5,293 119,293.5 120.5,294C 122.789,295.688 124.123,297.521 124.5,299.5C 125.48,296.914 125.813,294.247 125.5,291.5C 123.304,291.435 121.304,290.768 119.5,289.5C 121.084,286.873 122.751,286.873 124.5,289.5C 125.731,288.349 125.731,287.183 124.5,286C 122.5,285.333 120.5,285.333 118.5,286C 116.444,289.498 113.777,290.165 110.5,288C 112.256,287.798 113.922,287.298 115.5,286.5C 108.833,285.833 102.167,285.167 95.5,284.5C 94.3881,283.735 93.7214,282.735 93.5,281.5C 101.019,281.825 108.352,281.492 115.5,280.5C 115.5,279.167 115.5,277.833 115.5,276.5C 108.313,276.175 101.313,276.509 94.5,277.5C 93.596,278.209 93.2627,279.209 93.5,280.5C 92.71,279.391 92.21,278.058 92,276.5C 91.586,276.957 91.086,277.291 90.5,277.5C 89.6365,279.771 89.6365,282.105 90.5,284.5C 89.5,284.5 88.5,284.5 87.5,284.5C 87.6621,282.473 87.4955,280.473 87,278.5C 86.6667,279.167 86.3333,279.833 86,280.5C 85.4427,278.385 84.6094,276.385 83.5,274.5C 84.2427,273.818 84.9094,273.151 85.5,272.5C 87.8897,272.855 90.223,273.522 92.5,274.5C 100.18,273.168 107.847,273.168 115.5,274.5C 115.5,273.5 115.5,272.5 115.5,271.5C 116.586,271.38 117.253,270.713 117.5,269.5C 117.253,268.287 116.586,267.62 115.5,267.5C 105.5,267.5 95.5,267.5 85.5,267.5C 95.3249,266.67 105.325,266.17 115.5,266C 113.109,265.713 110.776,265.213 108.5,264.5C 106.16,261.958 106.16,259.625 108.5,257.5C 109.806,258.912 110.64,260.579 111,262.5C 112.11,260.963 113.61,260.297 115.5,260.5C 115.5,258.833 115.5,257.167 115.5,255.5C 116.822,255.33 117.989,255.663 119,256.5C 119.216,258.384 119.883,260.051 121,261.5C 121.645,259.247 123.311,257.247 126,255.5C 128.151,255.765 129.818,256.765 131,258.5C 131.333,256.5 131.667,254.5 132,252.5C 133.011,251.663 134.178,251.33 135.5,251.5 Z"/></g>
<g><path style="opacity:0.063" fill="#d1ccd4" d="M 264.5,256.5 C 266.167,257.5 267.5,258.833 268.5,260.5C 266.167,260.167 264.833,258.833 264.5,256.5 Z"/></g>
<g><path style="opacity:1" fill="#e3dfe9" d="M 65.5,256.5 C 70.1585,256.015 71.4919,257.848 69.5,262C 64.7282,262.81 63.3948,260.977 65.5,256.5 Z"/></g>
<g><path style="opacity:1" fill="#44291d" d="M 216.5,251.5 C 220.371,251.185 224.038,251.518 227.5,252.5C 228.167,252.5 228.833,252.5 229.5,252.5C 231.841,256.273 232.007,260.273 230,264.5C 225.367,268.325 220.533,268.491 215.5,265C 214.139,263.416 213.472,261.582 213.5,259.5C 209.842,258.872 207.342,260.206 206,263.5C 205.184,264.823 204.017,265.489 202.5,265.5C 201.5,266.167 200.5,266.833 199.5,267.5C 197.473,267.662 195.473,267.495 193.5,267C 188.822,262.973 187.822,258.307 190.5,253C 194.711,251.466 199.044,251.133 203.5,252C 205.019,253.351 206.352,254.851 207.5,256.5C 209.396,257.466 211.396,257.799 213.5,257.5C 213.615,255.053 214.615,253.053 216.5,251.5 Z"/></g>
<g><path style="opacity:1" fill="#daa845" d="M 76.5,257.5 C 84.8333,257.5 93.1667,257.5 101.5,257.5C 101.5,258.833 101.5,260.167 101.5,261.5C 93.4931,261.666 85.4931,261.5 77.5,261C 76.6634,259.989 76.33,258.822 76.5,257.5 Z"/></g>
<g><path style="opacity:1" fill="#403d48" d="M 264.5,256.5 C 264.5,256.167 264.5,255.833 264.5,255.5C 265.167,255.5 265.833,255.5 266.5,255.5C 267.609,255.557 268.609,255.89 269.5,256.5C 269.973,257.906 270.973,258.573 272.5,258.5C 301.33,259.332 330.33,259.832 359.5,260C 360.416,260.278 361.082,260.778 361.5,261.5C 330.475,261.803 299.475,261.47 268.5,260.5C 267.5,258.833 266.167,257.5 264.5,256.5 Z"/></g>
<g><path style="opacity:1" fill="#cda691" d="M 227.5,252.5 C 232.128,263.26 228.795,267.26 217.5,264.5C 213.325,260.224 213.659,256.391 218.5,253C 221.482,252.502 224.482,252.335 227.5,252.5 Z"/></g>
<g><path style="opacity:1" fill="#321e17" d="M 218.5,255.5 C 219.995,255.415 220.995,256.081 221.5,257.5C 220.68,259.111 219.346,259.778 217.5,259.5C 217.433,258.041 217.766,256.708 218.5,255.5 Z"/></g>
<g><path style="opacity:1" fill="#5b443c" d="M 76.5,257.5 C 76.33,258.822 76.6634,259.989 77.5,261C 85.4931,261.5 93.4931,261.666 101.5,261.5C 93.6841,262.492 85.6841,262.826 77.5,262.5C 75.4031,261.121 75.0698,259.455 76.5,257.5 Z"/></g>
<g><path style="opacity:1" fill="#cca494" d="M 202.5,265.5 C 193.257,267.423 189.424,263.757 191,254.5C 195.052,252.058 199.219,251.891 203.5,254C 206.195,258.022 205.862,261.856 202.5,265.5 Z"/></g>
<g><path style="opacity:1" fill="#201104" d="M 199.5,255.5 C 201.912,255.694 202.912,257.027 202.5,259.5C 201.5,259.5 200.5,259.5 199.5,259.5C 199.5,258.167 199.5,256.833 199.5,255.5 Z"/></g>
<g><path style="opacity:0.153" fill="#e4e0e6" d="M 268.5,260.5 C 299.475,261.47 330.475,261.803 361.5,261.5C 362.167,261.5 362.833,261.5 363.5,261.5C 333.003,262.664 302.336,262.831 271.5,262C 270.263,261.768 269.263,261.268 268.5,260.5 Z"/></g>
<g><path style="opacity:1" fill="#48b6dc" d="M 85.5,267.5 C 95.5,267.5 105.5,267.5 115.5,267.5C 115.5,268.5 115.5,269.5 115.5,270.5C 105.5,270.5 95.5,270.5 85.5,270.5C 85.5,269.5 85.5,268.5 85.5,267.5 Z"/></g>
<g><path style="opacity:1" fill="#dddbe4" d="M 65.5,265.5 C 70.3276,265.385 71.6609,267.552 69.5,272C 64.5705,272.427 63.2372,270.26 65.5,265.5 Z"/></g>
<g><path style="opacity:1" fill="#2e6d8f" d="M 115.5,267.5 C 116.586,267.62 117.253,268.287 117.5,269.5C 117.253,270.713 116.586,271.38 115.5,271.5C 105.319,271.827 95.3194,271.494 85.5,270.5C 95.5,270.5 105.5,270.5 115.5,270.5C 115.5,269.5 115.5,268.5 115.5,267.5 Z"/></g>
<g><path style="opacity:1" fill="#ca9c8b" d="M 237.5,239.5 C 236.916,242.983 237.749,245.983 240,248.5C 242.363,253.451 241.03,257.117 236,259.5C 234.085,267.681 229.919,274.348 223.5,279.5C 220.894,280.743 220.894,282.076 223.5,283.5C 214.29,291.615 205.29,291.449 196.5,283C 197.056,282.617 197.389,282.117 197.5,281.5C 196.5,280.167 195.5,278.833 194.5,277.5C 194.611,276.883 194.944,276.383 195.5,276C 193.403,274.354 191.736,272.354 190.5,270C 192.562,269.436 194.395,269.936 196,271.5C 197,270.833 198,270.167 199,269.5C 201.359,272.034 202.526,271.367 202.5,267.5C 201.5,267.5 200.5,267.5 199.5,267.5C 200.5,266.833 201.5,266.167 202.5,265.5C 204.017,265.489 205.184,264.823 206,263.5C 207.342,260.206 209.842,258.872 213.5,259.5C 213.472,261.582 214.139,263.416 215.5,265C 220.533,268.491 225.367,268.325 230,264.5C 232.007,260.273 231.841,256.273 229.5,252.5C 230.15,252.196 230.817,251.863 231.5,251.5C 232.489,247.893 232.823,244.226 232.5,240.5C 233.326,245.316 233.826,250.316 234,255.5C 234.915,254.672 235.581,253.672 236,252.5C 236.175,247.981 236.675,243.647 237.5,239.5 Z"/></g>
<g><path style="opacity:1" fill="#bc3e4a" d="M 204.5,270.5 C 208.129,271.1 211.796,271.767 215.5,272.5C 212.721,274.297 209.721,274.797 206.5,274C 205.177,273.184 204.511,272.017 204.5,270.5 Z"/></g>
<g><path style="opacity:0.952" fill="#84d3e5" d="M 322.5,282.5 C 316.481,276.605 309.148,274.272 300.5,275.5C 295.833,275.667 291.167,275.833 286.5,276C 282.417,277.609 278.75,279.776 275.5,282.5C 276.585,278.246 279.252,275.413 283.5,274C 294.573,273.069 305.573,273.403 316.5,275C 319.107,277.066 321.107,279.566 322.5,282.5 Z"/></g>
<g><path style="opacity:1" fill="#eab54a" d="M 94.5,277.5 C 101.2,277.17 107.866,277.503 114.5,278.5C 108.012,279.167 101.679,279.833 95.5,280.5C 94.596,279.791 94.2627,278.791 94.5,277.5 Z"/></g>
<g><path style="opacity:1" fill="#dbd8e5" d="M 65.5,275.5 C 70.3276,275.385 71.6609,277.552 69.5,282C 64.5705,282.427 63.2372,280.26 65.5,275.5 Z"/></g>
<g><path style="opacity:1" fill="#d5a259" d="M 94.5,277.5 C 101.313,276.509 108.313,276.175 115.5,276.5C 115.5,277.833 115.5,279.167 115.5,280.5C 108.833,280.5 102.167,280.5 95.5,280.5C 101.679,279.833 108.012,279.167 114.5,278.5C 107.866,277.503 101.2,277.17 94.5,277.5 Z"/></g>
<g><path style="opacity:1" fill="#855b2c" d="M 94.5,277.5 C 94.2627,278.791 94.596,279.791 95.5,280.5C 102.167,280.5 108.833,280.5 115.5,280.5C 108.352,281.492 101.019,281.825 93.5,281.5C 93.5,281.167 93.5,280.833 93.5,280.5C 93.2627,279.209 93.596,278.209 94.5,277.5 Z"/></g>
<g><path style="opacity:1" fill="#e5dfe3" d="M 223.5,279.5 C 223.62,280.586 224.287,281.253 225.5,281.5C 228.029,281.929 230.362,282.596 232.5,283.5C 230.973,283.427 229.973,284.094 229.5,285.5C 226.563,286.803 223.897,288.47 221.5,290.5C 218.888,291.371 216.221,292.037 213.5,292.5C 210.059,292.699 206.726,292.199 203.5,291C 199.432,288.3 195.099,286.133 190.5,284.5C 189.791,283.596 188.791,283.263 187.5,283.5C 190.589,282.215 193.922,281.549 197.5,281.5C 197.389,282.117 197.056,282.617 196.5,283C 205.29,291.449 214.29,291.615 223.5,283.5C 220.894,282.076 220.894,280.743 223.5,279.5 Z"/></g>
<g><path style="opacity:1" fill="#91a8db" d="M 232.5,283.5 C 237.092,283.882 241.425,284.882 245.5,286.5C 242.934,286.344 240.434,286.678 238,287.5C 235.361,286.006 232.528,285.339 229.5,285.5C 229.973,284.094 230.973,283.427 232.5,283.5 Z"/></g>
<g><path style="opacity:1" fill="#4ebddf" d="M 322.5,282.5 C 323.613,291.786 323.78,301.119 323,310.5C 322.084,314.908 319.584,317.908 315.5,319.5C 315.953,318.542 316.619,317.708 317.5,317C 317.272,316.601 316.938,316.435 316.5,316.5C 318.282,314.394 319.615,312.061 320.5,309.5C 317.957,308.643 315.623,307.31 313.5,305.5C 312.583,306.127 311.583,306.461 310.5,306.5C 311.815,305.333 312.481,303.833 312.5,302C 311.87,298.538 311.703,295.038 312,291.5C 310.416,290.139 308.582,289.472 306.5,289.5C 306.33,283.436 303.663,282.103 298.5,285.5C 293.337,282.103 290.67,283.436 290.5,289.5C 288.278,289.178 286.444,289.845 285,291.5C 285.614,295.521 285.447,299.521 284.5,303.5C 283.681,300.695 283.181,297.695 283,294.5C 281.637,295.893 280.804,297.559 280.5,299.5C 281.331,301.473 281.498,303.473 281,305.5C 280.259,306.641 279.425,306.641 278.5,305.5C 278.578,309.58 279.578,313.58 281.5,317.5C 282.59,318.857 283.924,319.857 285.5,320.5C 280.469,319.983 276.969,317.317 275,312.5C 273.452,303.562 273.119,294.562 274,285.5C 274.232,284.263 274.732,283.263 275.5,282.5C 278.75,279.776 282.417,277.609 286.5,276C 291.167,275.833 295.833,275.667 300.5,275.5C 309.148,274.272 316.481,276.605 322.5,282.5 Z"/></g>
<g><path style="opacity:1" fill="#e3dee9" d="M 65.5,285.5 C 69.0289,284.889 70.8622,286.223 71,289.5C 65.6479,292.877 63.8145,291.544 65.5,285.5 Z"/></g>
<g><path style="opacity:1" fill="#4caacf" d="M 77.5,286.5 C 82.1785,286.334 86.8452,286.501 91.5,287C 92.3366,288.011 92.67,289.178 92.5,290.5C 87.1667,290.5 81.8333,290.5 76.5,290.5C 76.4326,289.041 76.7659,287.708 77.5,286.5 Z"/></g>
<g><path style="opacity:1" fill="#94afe1" d="M 245.5,286.5 C 250.229,286.067 253.896,287.734 256.5,291.5C 251.712,291.993 248.046,290.326 245.5,286.5 Z"/></g>
<g><path style="opacity:1" fill="#5181dd" d="M 229.5,285.5 C 232.528,285.339 235.361,286.006 238,287.5C 240.434,286.678 242.934,286.344 245.5,286.5C 248.046,290.326 251.712,291.993 256.5,291.5C 256.273,294.438 257.273,296.771 259.5,298.5C 257.482,299.623 255.482,299.623 253.5,298.5C 251.189,299.214 249.022,300.214 247,301.5C 245.055,299.819 243.055,299.152 241,299.5C 240.167,300.5 239.333,301.5 238.5,302.5C 234.917,300.627 231.251,300.293 227.5,301.5C 227.954,298.86 229.121,296.527 231,294.5C 231.497,292.19 231.663,289.857 231.5,287.5C 228.5,287.167 227.167,288.5 227.5,291.5C 225.5,291.167 223.5,290.833 221.5,290.5C 223.897,288.47 226.563,286.803 229.5,285.5 Z"/></g>
<g><path style="opacity:1" fill="#8fa9db" d="M 187.5,283.5 C 182.404,286.364 176.738,288.197 170.5,289C 166.957,292.049 163.291,294.882 159.5,297.5C 161.002,294.005 163.335,291.171 166.5,289C 173.241,286.218 180.241,284.385 187.5,283.5 Z"/></g>
<g><path style="opacity:1" fill="#c4d4f4" d="M 190.5,284.5 C 195.099,286.133 199.432,288.3 203.5,291C 206.726,292.199 210.059,292.699 213.5,292.5C 207.508,294.196 201.841,293.196 196.5,289.5C 194.131,288.31 192.131,286.643 190.5,284.5 Z"/></g>
<g><path style="opacity:1" fill="#5f8adf" d="M 187.5,283.5 C 188.791,283.263 189.791,283.596 190.5,284.5C 192.131,286.643 194.131,288.31 196.5,289.5C 192.668,288.612 189.334,289.779 186.5,293C 182.226,293.897 178.226,295.397 174.5,297.5C 169.917,294.484 166.083,295.151 163,299.5C 162.228,299.355 161.561,299.022 161,298.5C 159.933,300.692 158.433,302.358 156.5,303.5C 156.992,301.181 157.992,299.181 159.5,297.5C 163.291,294.882 166.957,292.049 170.5,289C 176.738,288.197 182.404,286.364 187.5,283.5 Z"/></g>
<g><path style="opacity:1" fill="#e5e4ec" d="M 65.5,295.5 C 70.1585,295.015 71.4919,296.848 69.5,301C 64.7282,301.81 63.3948,299.977 65.5,295.5 Z"/></g>
<g><path style="opacity:1" fill="#4777dc" d="M 259.5,298.5 C 260.391,299.11 261.391,299.443 262.5,299.5C 262.748,303.757 263.748,307.757 265.5,311.5C 264.504,311.414 263.671,311.748 263,312.5C 262.667,309.833 262.333,307.167 262,304.5C 259.908,306.346 258.574,308.679 258,311.5C 257.5,311 257,310.5 256.5,310C 259.5,302.667 257.167,300 249.5,302C 243.897,304.691 240.897,309.191 240.5,315.5C 239.749,314.624 239.249,313.624 239,312.5C 238,314.833 236.333,316.5 234,317.5C 233.586,317.043 233.086,316.709 232.5,316.5C 226.854,317.125 221.187,317.792 215.5,318.5C 219.459,319.327 223.459,319.827 227.5,320C 223.898,320.635 223.232,321.968 225.5,324C 220.992,324.837 216.492,325.671 212,326.5C 207.909,325.268 203.742,324.601 199.5,324.5C 199.5,323.5 199.5,322.5 199.5,321.5C 196.729,321.579 194.063,321.079 191.5,320C 183.766,316.367 178.432,310.534 175.5,302.5C 173.088,301.051 171.088,301.384 169.5,303.5C 167.425,303.302 165.425,303.135 163.5,303C 167.747,313.204 167.413,323.538 162.5,334C 164.584,334.697 166.251,335.864 167.5,337.5C 162.34,335.543 157.006,334.21 151.5,333.5C 151.5,331.833 151.5,330.167 151.5,328.5C 154.776,320.69 156.443,312.356 156.5,303.5C 158.433,302.358 159.933,300.692 161,298.5C 161.561,299.022 162.228,299.355 163,299.5C 166.083,295.151 169.917,294.484 174.5,297.5C 178.226,295.397 182.226,293.897 186.5,293C 189.334,289.779 192.668,288.612 196.5,289.5C 201.841,293.196 207.508,294.196 213.5,292.5C 216.221,292.037 218.888,291.371 221.5,290.5C 223.5,290.833 225.5,291.167 227.5,291.5C 227.167,288.5 228.5,287.167 231.5,287.5C 231.663,289.857 231.497,292.19 231,294.5C 229.121,296.527 227.954,298.86 227.5,301.5C 231.251,300.293 234.917,300.627 238.5,302.5C 239.333,301.5 240.167,300.5 241,299.5C 243.055,299.152 245.055,299.819 247,301.5C 249.022,300.214 251.189,299.214 253.5,298.5C 255.482,299.623 257.482,299.623 259.5,298.5 Z"/></g>
<g><path style="opacity:1" fill="#a3b8e5" d="M 256.5,291.5 C 259.262,293.596 261.262,296.262 262.5,299.5C 261.391,299.443 260.391,299.11 259.5,298.5C 257.273,296.771 256.273,294.438 256.5,291.5 Z"/></g>
<g><path style="opacity:1" fill="#e0e5ef" d="M 310.5,306.5 C 309.167,306.5 307.833,306.5 306.5,306.5C 305.954,312.107 303.287,313.44 298.5,310.5C 293.408,313.898 290.741,312.565 290.5,306.5C 287.68,306.913 285.68,305.913 284.5,303.5C 285.447,299.521 285.614,295.521 285,291.5C 286.444,289.845 288.278,289.178 290.5,289.5C 290.67,283.436 293.337,282.103 298.5,285.5C 303.663,282.103 306.33,283.436 306.5,289.5C 308.582,289.472 310.416,290.139 312,291.5C 311.703,295.038 311.87,298.538 312.5,302C 312.481,303.833 311.815,305.333 310.5,306.5 Z"/></g>
<g><path style="opacity:1" fill="#ac864b" d="M 84.5,301.5 C 83.6586,299.621 83.3253,297.621 83.5,295.5C 94.1667,295.5 104.833,295.5 115.5,295.5C 115.739,297.467 115.406,299.301 114.5,301C 104.506,301.5 94.5056,301.666 84.5,301.5 Z"/></g>
<g><path style="opacity:1" fill="#e9b34c" d="M 84.5,297.5 C 94.5222,297.168 104.522,297.501 114.5,298.5C 109.5,298.833 104.5,299.167 99.5,299.5C 94.1194,299.494 89.1194,298.828 84.5,297.5 Z"/></g>
<g><path style="opacity:1" fill="#46b0d8" d="M 295.5,292.5 C 302.865,292.653 304.865,295.82 301.5,302C 293.417,302.845 291.417,299.679 295.5,292.5 Z"/></g>
<g><path style="opacity:0.812" fill="#f9f4d0" d="M 368.5,303.5 C 357.828,303.333 347.161,303.5 336.5,304C 335.09,305.372 333.423,306.205 331.5,306.5C 333.925,303.238 337.258,301.738 341.5,302C 348.833,301.333 356.167,301.333 363.5,302C 365.382,302.198 367.048,302.698 368.5,303.5 Z"/></g>
<g><path style="opacity:1" fill="#f4e7a4" d="M 368.5,303.5 C 371.833,304.833 374.167,307.167 375.5,310.5C 372.964,308.546 370.298,306.879 367.5,305.5C 357.517,304.334 347.517,304.168 337.5,305C 336.149,306.617 334.482,307.784 332.5,308.5C 330.585,310.071 329.585,312.071 329.5,314.5C 328.238,323.359 328.238,332.359 329.5,341.5C 328.778,341.082 328.278,340.416 328,339.5C 327.333,330.5 327.333,321.5 328,312.5C 328.716,310.121 329.883,308.121 331.5,306.5C 333.423,306.205 335.09,305.372 336.5,304C 347.161,303.5 357.828,303.333 368.5,303.5 Z"/></g>
<g><path style="opacity:1" fill="#e4e3e7" d="M 65.5,305.5 C 70.1585,305.015 71.4919,306.848 69.5,311C 64.7282,311.81 63.3948,309.977 65.5,305.5 Z"/></g>
<g><path style="opacity:1" fill="#98afde" d="M 262.5,299.5 C 264.163,301.493 265.33,303.826 266,306.5C 267.785,311.686 268.618,317.02 268.5,322.5C 268.167,322.5 267.833,322.5 267.5,322.5C 267.758,318.633 267.092,314.966 265.5,311.5C 263.748,307.757 262.748,303.757 262.5,299.5 Z"/></g>
<g><path style="opacity:1" fill="#ead06e" d="M 375.5,310.5 C 376.387,319.801 376.721,329.134 376.5,338.5C 376.539,341.089 375.539,343.089 373.5,344.5C 374.599,333.534 374.765,322.534 374,311.5C 372.883,309.876 371.383,308.876 369.5,308.5C 367.83,309.995 365.997,311.328 364,312.5C 363.564,314.847 363.064,317.181 362.5,319.5C 364.115,320.982 365.115,322.816 365.5,325C 365.316,326.376 364.649,327.209 363.5,327.5C 363.449,329.57 364.115,331.403 365.5,333C 365.241,334.261 364.574,335.261 363.5,336C 364.357,336.689 365.023,337.522 365.5,338.5C 363.034,339.123 360.701,339.957 358.5,341C 360.376,342.375 362.376,343.542 364.5,344.5C 361.346,346.026 358.013,346.693 354.5,346.5C 354.5,345.5 354.5,344.5 354.5,343.5C 355.675,343.719 356.675,343.386 357.5,342.5C 353.185,341.585 348.852,340.752 344.5,340C 343.603,337.873 342.269,337.373 340.5,338.5C 340.709,339.086 341.043,339.586 341.5,340C 339.343,340.078 337.343,340.245 335.5,340.5C 337.861,342.13 337.861,343.797 335.5,345.5C 331.882,343.273 330.049,339.94 330,335.5C 329.5,328.508 329.334,321.508 329.5,314.5C 329.585,312.071 330.585,310.071 332.5,308.5C 334.482,307.784 336.149,306.617 337.5,305C 347.517,304.168 357.517,304.334 367.5,305.5C 370.298,306.879 372.964,308.546 375.5,310.5 Z"/></g>
<g><path style="opacity:1" fill="#366484" d="M 77.5,305.5 C 85.8333,305.5 94.1667,305.5 102.5,305.5C 102.768,307.099 102.434,308.432 101.5,309.5C 101.5,310.167 101.5,310.833 101.5,311.5C 94.8333,311.5 88.1667,311.5 81.5,311.5C 79.5328,311.739 77.6995,311.406 76,310.5C 75.8333,309.667 75.6667,308.833 75.5,308C 75.6842,306.624 76.3509,305.791 77.5,305.5 Z"/></g>
<g><path style="opacity:1" fill="#4bb6dc" d="M 101.5,309.5 C 93.5,309.5 85.5,309.5 77.5,309.5C 77.5,308.5 77.5,307.5 77.5,306.5C 85.5,306.5 93.5,306.5 101.5,306.5C 101.5,307.5 101.5,308.5 101.5,309.5 Z"/></g>
<g><path style="opacity:1" fill="#eedcb0" d="M 361.5,323.5 C 360.691,321.708 360.191,319.708 360,317.5C 359.092,315.561 357.592,314.561 355.5,314.5C 355.5,315.5 355.5,316.5 355.5,317.5C 353.744,316.448 353.077,314.781 353.5,312.5C 355.5,312.5 357.5,312.5 359.5,312.5C 361.087,315.919 361.753,319.585 361.5,323.5 Z"/></g>
<g><path style="opacity:1" fill="#34b1de" d="M 284.5,303.5 C 285.68,305.913 287.68,306.913 290.5,306.5C 290.741,312.565 293.408,313.898 298.5,310.5C 303.287,313.44 305.954,312.107 306.5,306.5C 307.833,306.5 309.167,306.5 310.5,306.5C 311.583,306.461 312.583,306.127 313.5,305.5C 315.623,307.31 317.957,308.643 320.5,309.5C 319.615,312.061 318.282,314.394 316.5,316.5C 315.711,316.783 315.044,317.283 314.5,318C 303.454,318.788 292.454,318.622 281.5,317.5C 279.578,313.58 278.578,309.58 278.5,305.5C 279.425,306.641 280.259,306.641 281,305.5C 281.498,303.473 281.331,301.473 280.5,299.5C 280.804,297.559 281.637,295.893 283,294.5C 283.181,297.695 283.681,300.695 284.5,303.5 Z"/></g>
<g><path style="opacity:1" fill="#7390d1" d="M 156.5,303.5 C 156.443,312.356 154.776,320.69 151.5,328.5C 152.379,322.183 153.212,315.85 154,309.5C 154.566,307.277 155.4,305.277 156.5,303.5 Z"/></g>
<g><path style="opacity:1" fill="#645b6c" d="M 81.5,311.5 C 88.1667,311.5 94.8333,311.5 101.5,311.5C 106.387,311.973 111.054,312.973 115.5,314.5C 107.826,314.334 100.159,314.5 92.5,315C 91.1991,316.616 91.1991,318.116 92.5,319.5C 91.9935,320.859 90.9935,321.859 89.5,322.5C 90.5,322.833 91.5,323.167 92.5,323.5C 100.138,322.601 107.804,322.268 115.5,322.5C 116.609,323.29 117.942,323.79 119.5,324C 118.359,324.741 118.359,325.575 119.5,326.5C 118.192,327.626 116.858,327.626 115.5,326.5C 115.5,326.167 115.5,325.833 115.5,325.5C 106.325,324.178 96.9918,324.178 87.5,325.5C 86.0465,327.644 86.3799,329.477 88.5,331C 97.8274,331.5 107.161,331.666 116.5,331.5C 116.196,332.15 115.863,332.817 115.5,333.5C 102.673,334.167 90.0064,334.833 77.5,335.5C 77.5,335.833 77.5,336.167 77.5,336.5C 76.596,337.209 76.2627,338.209 76.5,339.5C 89.5,339.5 102.5,339.5 115.5,339.5C 116.376,339.369 117.043,339.702 117.5,340.5C 115.726,341.187 114.059,342.02 112.5,343C 97.7255,342.972 83.0589,343.805 68.5,345.5C 67.7109,345.217 67.0442,344.717 66.5,344C 68.1667,343.667 69.8333,343.333 71.5,343C 72.5171,341.951 72.6838,340.784 72,339.5C 70.3796,341.632 68.5463,341.965 66.5,340.5C 70.0714,340.592 71.2381,338.926 70,335.5C 69.6174,334.944 69.1174,334.611 68.5,334.5C 67.2825,333.839 65.9492,333.172 64.5,332.5C 63.3473,331.313 63.3473,330.313 64.5,329.5C 66.5,332.167 68.5,332.167 70.5,329.5C 71.6129,328.054 71.7796,326.387 71,324.5C 68.9307,323.736 66.764,323.236 64.5,323C 63.2089,321.708 63.2089,320.542 64.5,319.5C 67.3974,322.363 69.7308,321.863 71.5,318C 71.2568,317.098 70.9234,316.265 70.5,315.5C 70.3433,314.127 70.51,312.793 71,311.5C 73.4096,314.281 76.2429,316.615 79.5,318.5C 80.086,318.291 80.586,317.957 81,317.5C 81.4955,315.527 81.6621,313.527 81.5,311.5 Z"/></g>
<g><path style="opacity:1" fill="#63a5c5" d="M 316.5,316.5 C 316.938,316.435 317.272,316.601 317.5,317C 316.619,317.708 315.953,318.542 315.5,319.5C 314.391,320.29 313.058,320.79 311.5,321C 302.657,321.824 293.99,321.657 285.5,320.5C 283.924,319.857 282.59,318.857 281.5,317.5C 292.454,318.622 303.454,318.788 314.5,318C 315.044,317.283 315.711,316.783 316.5,316.5 Z"/></g>
<g><path style="opacity:1" fill="#d9d5df" d="M 70.5,315.5 C 70.9234,316.265 71.2568,317.098 71.5,318C 69.7308,321.863 67.3974,322.363 64.5,319.5C 64.2007,314.74 66.2007,313.406 70.5,315.5 Z"/></g>
<g><path style="opacity:1" fill="#eace64" d="M 373.5,344.5 C 370.722,344.022 368.722,345.022 367.5,347.5C 357.517,348.666 347.517,348.832 337.5,348C 336.244,347.583 335.577,346.75 335.5,345.5C 337.861,343.797 337.861,342.13 335.5,340.5C 337.343,340.245 339.343,340.078 341.5,340C 341.043,339.586 340.709,339.086 340.5,338.5C 342.269,337.373 343.603,337.873 344.5,340C 348.852,340.752 353.185,341.585 357.5,342.5C 356.675,343.386 355.675,343.719 354.5,343.5C 354.5,344.5 354.5,345.5 354.5,346.5C 358.013,346.693 361.346,346.026 364.5,344.5C 362.376,343.542 360.376,342.375 358.5,341C 360.701,339.957 363.034,339.123 365.5,338.5C 365.023,337.522 364.357,336.689 363.5,336C 364.574,335.261 365.241,334.261 365.5,333C 364.115,331.403 363.449,329.57 363.5,327.5C 364.649,327.209 365.316,326.376 365.5,325C 365.115,322.816 364.115,320.982 362.5,319.5C 363.064,317.181 363.564,314.847 364,312.5C 365.997,311.328 367.83,309.995 369.5,308.5C 371.383,308.876 372.883,309.876 374,311.5C 374.765,322.534 374.599,333.534 373.5,344.5 Z"/></g>
<g><path style="opacity:1" fill="#6b5a54" d="M 115.5,314.5 C 118.167,317.167 118.167,319.833 115.5,322.5C 107.804,322.268 100.138,322.601 92.5,323.5C 91.5,323.167 90.5,322.833 89.5,322.5C 90.9935,321.859 91.9935,320.859 92.5,319.5C 91.1991,318.116 91.1991,316.616 92.5,315C 100.159,314.5 107.826,314.334 115.5,314.5 Z"/></g>
<g><path style="opacity:1" fill="#d6a853" d="M 92.5,319.5 C 92.33,318.178 92.6634,317.011 93.5,316C 100.5,315.333 107.5,315.333 114.5,316C 115.337,317.011 115.67,318.178 115.5,319.5C 107.833,319.5 100.167,319.5 92.5,319.5 Z"/></g>
<g><path style="opacity:0.024" fill="#fefdd7" d="M 375.5,310.5 C 376.222,310.918 376.722,311.584 377,312.5C 377.824,321.343 377.657,330.01 376.5,338.5C 376.721,329.134 376.387,319.801 375.5,310.5 Z"/></g>
<g><path style="opacity:1" fill="#2249c7" d="M 174.5,345.5 C 173.417,345.539 172.417,345.873 171.5,346.5C 170.831,344.369 170.165,342.369 169.5,340.5C 169.5,339.833 169.5,339.167 169.5,338.5C 170.233,329.435 170.233,320.269 169.5,311C 169.833,310.167 170.167,309.333 170.5,308.5C 170.833,308.833 171.167,309.167 171.5,309.5C 173.942,321.467 174.942,333.467 174.5,345.5 Z"/></g>
<g><path style="opacity:1" fill="#4272d9" d="M 265.5,311.5 C 267.092,314.966 267.758,318.633 267.5,322.5C 267.156,325.62 267.823,328.453 269.5,331C 268.456,332.174 267.456,333.341 266.5,334.5C 262.297,335.271 258.297,336.604 254.5,338.5C 254.821,336.952 255.821,336.285 257.5,336.5C 258.042,332.456 257.209,328.789 255,325.5C 254.279,318.177 253.779,310.844 253.5,303.5C 251.801,303.34 250.134,303.506 248.5,304C 247,306.167 245.5,308.333 244,310.5C 243.071,316.346 241.571,322.013 239.5,327.5C 234.432,329.702 229.432,332.202 224.5,335C 215.592,336.982 206.759,336.815 198,334.5C 197.228,334.645 196.561,334.978 196,335.5C 192.025,332.891 187.859,330.558 183.5,328.5C 182.189,325.865 180.522,323.531 178.5,321.5C 177.391,314.758 175.224,308.425 172,302.5C 171.329,303.252 170.496,303.586 169.5,303.5C 171.088,301.384 173.088,301.051 175.5,302.5C 178.432,310.534 183.766,316.367 191.5,320C 194.063,321.079 196.729,321.579 199.5,321.5C 199.5,322.5 199.5,323.5 199.5,324.5C 203.742,324.601 207.909,325.268 212,326.5C 216.492,325.671 220.992,324.837 225.5,324C 223.232,321.968 223.898,320.635 227.5,320C 223.459,319.827 219.459,319.327 215.5,318.5C 221.187,317.792 226.854,317.125 232.5,316.5C 233.086,316.709 233.586,317.043 234,317.5C 236.333,316.5 238,314.833 239,312.5C 239.249,313.624 239.749,314.624 240.5,315.5C 240.897,309.191 243.897,304.691 249.5,302C 257.167,300 259.5,302.667 256.5,310C 257,310.5 257.5,311 258,311.5C 258.574,308.679 259.908,306.346 262,304.5C 262.333,307.167 262.667,309.833 263,312.5C 263.671,311.748 264.504,311.414 265.5,311.5 Z"/></g>
<g><path style="opacity:0.965" fill="#8195d0" d="M 267.5,322.5 C 267.833,322.5 268.167,322.5 268.5,322.5C 270.003,326.315 270.669,329.982 270.5,333.5C 269.167,333.833 267.833,334.167 266.5,334.5C 267.456,333.341 268.456,332.174 269.5,331C 267.823,328.453 267.156,325.62 267.5,322.5 Z"/></g>
<g><path style="opacity:1" fill="#254dcb" d="M 253.5,338.5 C 252.609,339.11 251.609,339.443 250.5,339.5C 249.837,341.042 249.17,342.709 248.5,344.5C 247.228,340.095 246.561,335.595 246.5,331C 247,324.5 247.5,318 248,311.5C 248.689,310.643 249.522,309.977 250.5,309.5C 251.456,319.178 252.456,328.844 253.5,338.5 Z"/></g>
<g><path style="opacity:1" fill="#45afd1" d="M 115.5,325.5 C 115.5,325.833 115.5,326.167 115.5,326.5C 115.5,327.5 115.5,328.5 115.5,329.5C 106.5,329.5 97.5,329.5 88.5,329.5C 88.5,328.167 88.5,326.833 88.5,325.5C 97.5,325.5 106.5,325.5 115.5,325.5 Z"/></g>
<g><path style="opacity:1" fill="#d7d4df" d="M 70.5,329.5 C 68.5,332.167 66.5,332.167 64.5,329.5C 64.3433,328.127 64.51,326.793 65,325.5C 69.152,323.508 70.9854,324.841 70.5,329.5 Z"/></g>
<g><path style="opacity:1" fill="#405777" d="M 115.5,325.5 C 106.5,325.5 97.5,325.5 88.5,325.5C 88.5,326.833 88.5,328.167 88.5,329.5C 97.5,329.5 106.5,329.5 115.5,329.5C 117.698,329.409 118.031,330.075 116.5,331.5C 107.161,331.666 97.8274,331.5 88.5,331C 86.3799,329.477 86.0465,327.644 87.5,325.5C 96.9918,324.178 106.325,324.178 115.5,325.5 Z"/></g>
<g><path style="opacity:1" fill="#ece1d3" d="M 344.5,313.5 C 346.167,313.5 347.833,313.5 349.5,313.5C 347.254,321.732 346.92,330.065 348.5,338.5C 346.019,338.677 344.186,337.677 343,335.5C 342.018,332.06 340.851,328.727 339.5,325.5C 340.541,321.181 342.208,317.181 344.5,313.5 Z"/></g>
<g><path style="opacity:1" fill="#eae3da" d="M 361.5,323.5 C 363.176,324.183 363.843,325.517 363.5,327.5C 361.805,329.732 360.638,332.399 360,335.5C 358.736,337.607 356.903,338.607 354.5,338.5C 355.386,331.543 355.72,324.543 355.5,317.5C 355.5,316.5 355.5,315.5 355.5,314.5C 357.592,314.561 359.092,315.561 360,317.5C 360.191,319.708 360.691,321.708 361.5,323.5 Z"/></g>
<g><path style="opacity:1" fill="#3969d4" d="M 169.5,303.5 C 170.496,303.586 171.329,303.252 172,302.5C 175.224,308.425 177.391,314.758 178.5,321.5C 180.522,323.531 182.189,325.865 183.5,328.5C 187.859,330.558 192.025,332.891 196,335.5C 196.561,334.978 197.228,334.645 198,334.5C 206.759,336.815 215.592,336.982 224.5,335C 229.432,332.202 234.432,329.702 239.5,327.5C 241.571,322.013 243.071,316.346 244,310.5C 245.5,308.333 247,306.167 248.5,304C 250.134,303.506 251.801,303.34 253.5,303.5C 253.779,310.844 254.279,318.177 255,325.5C 257.209,328.789 258.042,332.456 257.5,336.5C 255.821,336.285 254.821,336.952 254.5,338.5C 254.167,338.5 253.833,338.5 253.5,338.5C 252.456,328.844 251.456,319.178 250.5,309.5C 249.522,309.977 248.689,310.643 248,311.5C 247.5,318 247,324.5 246.5,331C 246.561,335.595 247.228,340.095 248.5,344.5C 249.17,342.709 249.837,341.042 250.5,339.5C 250.5,341.833 250.5,344.167 250.5,346.5C 247.5,346.5 244.5,346.5 241.5,346.5C 219.34,345.503 197.006,345.169 174.5,345.5C 174.942,333.467 173.942,321.467 171.5,309.5C 171.167,309.167 170.833,308.833 170.5,308.5C 170.167,309.333 169.833,310.167 169.5,311C 170.233,320.269 170.233,329.435 169.5,338.5C 168.508,338.672 167.842,338.338 167.5,337.5C 166.251,335.864 164.584,334.697 162.5,334C 167.413,323.538 167.747,313.204 163.5,303C 165.425,303.135 167.425,303.302 169.5,303.5 Z"/></g>
<g><path style="opacity:1" fill="#e7e7ec" d="M 151.5,328.5 C 151.5,330.167 151.5,331.833 151.5,333.5C 157.006,334.21 162.34,335.543 167.5,337.5C 167.842,338.338 168.508,338.672 169.5,338.5C 169.5,339.167 169.5,339.833 169.5,340.5C 169.5,342.833 169.5,345.167 169.5,347.5C 169.5,348.833 168.833,349.5 167.5,349.5C 166.89,350.391 166.557,351.391 166.5,352.5C 165.834,356.021 165.167,359.687 164.5,363.5C 160.288,361.768 155.955,360.935 151.5,361C 152.381,361.708 153.047,362.542 153.5,363.5C 151.376,362.969 149.876,361.635 149,359.5C 147.86,356.581 147.027,353.581 146.5,350.5C 148.225,343.036 149.891,335.703 151.5,328.5 Z"/></g>
<g><path style="opacity:1" fill="#e5e1ee" d="M 68.5,334.5 C 69.1174,334.611 69.6174,334.944 70,335.5C 71.2381,338.926 70.0714,340.592 66.5,340.5C 65.8826,340.389 65.3826,340.056 65,339.5C 63.7619,336.074 64.9286,334.408 68.5,334.5 Z"/></g>
<g><path style="opacity:1" fill="#dfca92" d="M 329.5,314.5 C 329.334,321.508 329.5,328.508 330,335.5C 330.049,339.94 331.882,343.273 335.5,345.5C 335.577,346.75 336.244,347.583 337.5,348C 347.517,348.832 357.517,348.666 367.5,347.5C 368.722,345.022 370.722,344.022 373.5,344.5C 371.806,347.531 369.14,349.364 365.5,350C 356.833,350.667 348.167,350.667 339.5,350C 334.676,348.777 331.342,345.943 329.5,341.5C 328.238,332.359 328.238,323.359 329.5,314.5 Z"/></g>
<g><path style="opacity:1" fill="#cfa34f" d="M 77.5,335.5 C 90.1667,335.5 102.833,335.5 115.5,335.5C 115.5,336.833 115.5,338.167 115.5,339.5C 102.5,339.5 89.5,339.5 76.5,339.5C 76.2627,338.209 76.596,337.209 77.5,336.5C 77.5,336.167 77.5,335.833 77.5,335.5 Z"/></g>
<g><path style="opacity:1" fill="#ebb542" d="M 77.5,336.5 C 89.8513,336.168 102.185,336.501 114.5,337.5C 108.333,337.833 102.167,338.167 96,338.5C 89.462,338.496 83.2953,337.83 77.5,336.5 Z"/></g>
<g><path style="opacity:1" fill="#4561ab" d="M 169.5,340.5 C 170.165,342.369 170.831,344.369 171.5,346.5C 172.417,345.873 173.417,345.539 174.5,345.5C 197.006,345.169 219.34,345.503 241.5,346.5C 218.661,346.169 195.994,346.503 173.5,347.5C 172.167,347.5 170.833,347.5 169.5,347.5C 169.5,345.167 169.5,342.833 169.5,340.5 Z"/></g>
<g><path style="opacity:1" fill="#6976aa" d="M 253.5,338.5 C 253.833,338.5 254.167,338.5 254.5,338.5C 253.5,339.833 252.5,341.167 251.5,342.5C 251.5,343.5 251.5,344.5 251.5,345.5C 251.5,345.833 251.5,346.167 251.5,346.5C 251.611,347.117 251.944,347.617 252.5,348C 226.183,347.608 199.85,347.442 173.5,347.5C 195.994,346.503 218.661,346.169 241.5,346.5C 244.5,346.5 247.5,346.5 250.5,346.5C 250.5,344.167 250.5,341.833 250.5,339.5C 251.609,339.443 252.609,339.11 253.5,338.5 Z"/></g>
<g><path style="opacity:1" fill="#59586f" d="M 251.5,346.5 C 255.946,346.056 259.279,347.723 261.5,351.5C 259.5,351.167 257.5,350.833 255.5,350.5C 226.831,350.333 198.165,350.5 169.5,351C 168.473,351.513 167.473,352.013 166.5,352.5C 166.557,351.391 166.89,350.391 167.5,349.5C 168.833,349.5 169.5,348.833 169.5,347.5C 170.833,347.5 172.167,347.5 173.5,347.5C 199.85,347.442 226.183,347.608 252.5,348C 251.944,347.617 251.611,347.117 251.5,346.5 Z"/></g>
<g><path style="opacity:1" fill="#e5e4e8" d="M 270.5,333.5 C 271.66,337.469 272.827,341.469 274,345.5C 275.745,352.564 274.245,358.731 269.5,364C 267.783,365.559 265.783,366.392 263.5,366.5C 263.5,371.167 263.5,375.833 263.5,380.5C 273.979,380.232 284.312,378.899 294.5,376.5C 291.141,378.219 287.475,379.386 283.5,380C 276.54,381.087 269.54,381.587 262.5,381.5C 262.827,371.319 262.494,361.319 261.5,351.5C 259.279,347.723 255.946,346.056 251.5,346.5C 251.5,346.167 251.5,345.833 251.5,345.5C 252.833,344.5 252.833,343.5 251.5,342.5C 252.5,341.167 253.5,339.833 254.5,338.5C 258.297,336.604 262.297,335.271 266.5,334.5C 267.833,334.167 269.167,333.833 270.5,333.5 Z"/></g>
<g><path style="opacity:1" fill="#21202d" d="M 255.5,350.5 C 258.612,352.216 259.612,354.716 258.5,358C 260.513,358.875 260.513,360.209 258.5,362C 259.357,362.689 260.023,363.522 260.5,364.5C 258.966,367.971 258.3,371.638 258.5,375.5C 258.958,379.164 258.958,382.664 258.5,386C 258.639,387.301 259.305,388.134 260.5,388.5C 260.573,390.027 259.906,391.027 258.5,391.5C 257.571,390.685 256.571,389.852 255.5,389C 250.173,388.137 244.839,387.303 239.5,386.5C 242.506,385.252 245.506,385.252 248.5,386.5C 250.535,383.667 250.868,380.667 249.5,377.5C 248.15,376.05 246.484,375.383 244.5,375.5C 244.5,372.833 244.5,370.167 244.5,367.5C 242.833,367.5 241.167,367.5 239.5,367.5C 239.167,371.5 238.833,371.5 238.5,367.5C 236.5,367.5 234.5,367.5 232.5,367.5C 232.649,368.552 232.483,369.552 232,370.5C 231.506,368.866 231.34,367.199 231.5,365.5C 227.692,365.837 224.026,365.337 220.5,364C 220.833,363.667 221.167,363.333 221.5,363C 215.322,361.282 215.322,362.282 221.5,366C 220.748,366.671 220.414,367.504 220.5,368.5C 216.33,364.565 212.163,364.565 208,368.5C 206.78,372.293 207.947,374.96 211.5,376.5C 210.292,377.234 208.959,377.567 207.5,377.5C 205.972,374.636 205.139,371.636 205,368.5C 203.676,370.828 202.343,373.161 201,375.5C 200.308,374.975 199.808,374.308 199.5,373.5C 203.88,369.829 205.547,365.163 204.5,359.5C 198.947,358.031 193.281,357.031 187.5,356.5C 183.524,357.164 179.524,357.497 175.5,357.5C 175.664,360.187 175.497,362.854 175,365.5C 174.824,362.118 174.324,358.785 173.5,355.5C 172.673,359.459 172.173,363.459 172,367.5C 171.818,364.774 171.318,362.107 170.5,359.5C 169.491,364.97 168.491,370.303 167.5,375.5C 167.802,372.941 167.468,370.607 166.5,368.5C 166.5,363.167 166.5,357.833 166.5,352.5C 167.473,352.013 168.473,351.513 169.5,351C 198.165,350.5 226.831,350.333 255.5,350.5 Z"/></g>
<g><path style="opacity:0.267" fill="#ececf0" d="M 47.5,350.5 C 48.4013,351.29 49.0679,352.29 49.5,353.5C 47.9519,353.179 47.2852,352.179 47.5,350.5 Z"/></g>
<g><path style="opacity:1" fill="#1f1d2a" d="M 211.5,376.5 C 216.483,377.017 219.816,375.017 221.5,370.5C 221.457,369.584 221.124,368.917 220.5,368.5C 220.414,367.504 220.748,366.671 221.5,366C 215.322,362.282 215.322,361.282 221.5,363C 221.167,363.333 220.833,363.667 220.5,364C 224.026,365.337 227.692,365.837 231.5,365.5C 231.34,367.199 231.506,368.866 232,370.5C 232.483,369.552 232.649,368.552 232.5,367.5C 234.5,367.5 236.5,367.5 238.5,367.5C 238.833,371.5 239.167,371.5 239.5,367.5C 241.167,367.5 242.833,367.5 244.5,367.5C 244.5,370.167 244.5,372.833 244.5,375.5C 246.484,375.383 248.15,376.05 249.5,377.5C 250.868,380.667 250.535,383.667 248.5,386.5C 245.506,385.252 242.506,385.252 239.5,386.5C 244.839,387.303 250.173,388.137 255.5,389C 256.571,389.852 257.571,390.685 258.5,391.5C 228.826,391.833 199.159,391.5 169.5,390.5C 168.757,389.818 168.091,389.151 167.5,388.5C 167.34,384.378 167.34,380.044 167.5,375.5C 168.491,370.303 169.491,364.97 170.5,359.5C 171.318,362.107 171.818,364.774 172,367.5C 172.173,363.459 172.673,359.459 173.5,355.5C 174.324,358.785 174.824,362.118 175,365.5C 175.497,362.854 175.664,360.187 175.5,357.5C 179.524,357.497 183.524,357.164 187.5,356.5C 193.281,357.031 198.947,358.031 204.5,359.5C 205.547,365.163 203.88,369.829 199.5,373.5C 199.808,374.308 200.308,374.975 201,375.5C 202.343,373.161 203.676,370.828 205,368.5C 205.139,371.636 205.972,374.636 207.5,377.5C 208.959,377.567 210.292,377.234 211.5,376.5 Z"/></g>
<g><path style="opacity:0.129" fill="#dfdee4" d="M 51.5,355.5 C 51.8333,355.5 52.1667,355.5 52.5,355.5C 53.5,355.833 54.1667,356.5 54.5,357.5C 52.9731,357.573 51.9731,356.906 51.5,355.5 Z"/></g>
<g><path style="opacity:0.98" fill="#504d56" d="M 130.5,351.5 C 131.11,352.391 131.443,353.391 131.5,354.5C 131.5,355.167 131.167,355.5 130.5,355.5C 128.847,355.66 127.514,356.326 126.5,357.5C 102.598,358.827 78.5977,358.827 54.5,357.5C 54.1667,356.5 53.5,355.833 52.5,355.5C 76.2558,355.639 100.256,355.472 124.5,355C 126.692,354.074 128.692,352.907 130.5,351.5 Z"/></g>
<g><path style="opacity:0.11" fill="#dcdbe1" d="M 130.5,355.5 C 129.713,357.104 128.38,357.771 126.5,357.5C 127.514,356.326 128.847,355.66 130.5,355.5 Z"/></g>
<g><path style="opacity:1" fill="#9b97a6" d="M 220.5,368.5 C 221.124,368.917 221.457,369.584 221.5,370.5C 219.816,375.017 216.483,377.017 211.5,376.5C 207.947,374.96 206.78,372.293 208,368.5C 212.163,364.565 216.33,364.565 220.5,368.5 Z"/></g>
<g><path style="opacity:0.28" fill="#cac8cf" d="M 166.5,352.5 C 166.5,357.833 166.5,363.167 166.5,368.5C 166.5,373.833 166.5,379.167 166.5,384.5C 158.16,384.666 149.827,384.5 141.5,384C 138.964,383.814 136.631,383.314 134.5,382.5C 144.824,383.078 155.157,383.412 165.5,383.5C 165.827,378.456 165.494,373.456 164.5,368.5C 160.478,367.392 156.812,365.725 153.5,363.5C 153.047,362.542 152.381,361.708 151.5,361C 155.955,360.935 160.288,361.768 164.5,363.5C 165.167,359.687 165.834,356.021 166.5,352.5 Z"/></g>
<g><path style="opacity:0.227" fill="#ecebee" d="M 294.5,376.5 C 295.449,375.848 296.615,375.514 298,375.5C 300.008,375.307 301.508,375.974 302.5,377.5C 299.904,376.735 297.237,376.401 294.5,376.5 Z"/></g>
<g><path style="opacity:0.008" fill="#dfddde" d="M 302.5,377.5 C 305.167,378.167 306.833,379.833 307.5,382.5C 305.5,381.167 303.833,379.5 302.5,377.5 Z"/></g>
<g><path style="opacity:0.075" fill="#e7e7e7" d="M 124.5,381.5 C 127.93,380.29 131.263,380.624 134.5,382.5C 131.167,382.167 127.833,381.833 124.5,381.5 Z"/></g>
<g><path style="opacity:0.184" fill="#d9d8d6" d="M 309.5,385.5 C 310.906,385.973 311.573,386.973 311.5,388.5C 310.094,388.027 309.427,387.027 309.5,385.5 Z"/></g>
<g><path style="opacity:0.51" fill="#c9c9c9" d="M 118.5,386.5 C 118.262,388.404 117.262,389.738 115.5,390.5C 115.738,388.596 116.738,387.262 118.5,386.5 Z"/></g>
<g><path style="opacity:1" fill="#434145" d="M 261.5,351.5 C 262.494,361.319 262.827,371.319 262.5,381.5C 269.54,381.587 276.54,381.087 283.5,380C 287.475,379.386 291.141,378.219 294.5,376.5C 297.237,376.401 299.904,376.735 302.5,377.5C 303.833,379.5 305.5,381.167 307.5,382.5C 308.906,382.973 309.573,383.973 309.5,385.5C 309.427,387.027 310.094,388.027 311.5,388.5C 311.5,388.833 311.5,389.167 311.5,389.5C 311.796,391.403 312.463,393.07 313.5,394.5C 314.497,397.328 314.497,399.995 313.5,402.5C 314.077,399.45 312.91,397.45 310,396.5C 308.248,393.328 306.248,390.328 304,387.5C 302.758,388.872 301.258,389.872 299.5,390.5C 297.636,389.007 295.47,388.34 293,388.5C 285.991,390.847 278.991,392.181 272,392.5C 268.406,393.283 266.573,391.95 266.5,388.5C 270.449,388.307 270.449,387.807 266.5,387C 267.056,386.617 267.389,386.117 267.5,385.5C 265.735,384.539 263.735,384.205 261.5,384.5C 261.5,373.5 261.5,362.5 261.5,351.5 Z"/></g>
<g><path style="opacity:1" fill="#353338" d="M 267.5,385.5 C 267.389,386.117 267.056,386.617 266.5,387C 270.449,387.807 270.449,388.307 266.5,388.5C 266.573,391.95 268.406,393.283 272,392.5C 278.991,392.181 285.991,390.847 293,388.5C 295.47,388.34 297.636,389.007 299.5,390.5C 301.258,389.872 302.758,388.872 304,387.5C 306.248,390.328 308.248,393.328 310,396.5C 312.91,397.45 314.077,399.45 313.5,402.5C 313.784,404.415 313.451,406.081 312.5,407.5C 312.167,407.5 311.833,407.5 311.5,407.5C 310.166,404.822 308.833,402.155 307.5,399.5C 307.305,397.097 306.138,395.43 304,394.5C 302.279,395.895 300.279,396.561 298,396.5C 288.559,395.566 279.393,395.399 270.5,396C 266.877,394.212 264.544,391.379 263.5,387.5C 264.577,386.295 265.91,385.628 267.5,385.5 Z"/></g>
<g><path style="opacity:0.045" fill="#e9e9e7" d="M 311.5,389.5 C 313.213,390.635 313.88,392.302 313.5,394.5C 312.463,393.07 311.796,391.403 311.5,389.5 Z"/></g>
<g><path style="opacity:1" fill="#3a373e" d="M 159.5,389.5 C 162.78,389.627 164.447,391.294 164.5,394.5C 164.402,396.937 163.402,398.937 161.5,400.5C 161.977,401.478 162.643,402.311 163.5,403C 161.231,404.724 158.897,404.724 156.5,403C 156.833,402.667 157.167,402.333 157.5,402C 147.361,400.552 137.361,399.218 127.5,398C 130.063,398.763 130.063,399.263 127.5,399.5C 125.664,398.067 123.664,397.567 121.5,398C 120.241,398.923 118.908,399.757 117.5,400.5C 116.209,401.527 116.209,402.527 117.5,403.5C 116.167,404.833 114.833,406.167 113.5,407.5C 113.167,407.5 112.833,407.5 112.5,407.5C 112.5,407.167 112.5,406.833 112.5,406.5C 112.833,403.167 113.167,399.833 113.5,396.5C 114.496,396.414 115.329,396.748 116,397.5C 117,395.833 118,394.167 119,392.5C 129.869,393.151 140.702,394.484 151.5,396.5C 154.841,396.164 158.175,395.831 161.5,395.5C 161.747,393.142 161.081,391.142 159.5,389.5 Z"/></g>
<g><path style="opacity:1" fill="#373649" d="M 259.5,397.5 C 250.161,397.334 240.827,397.5 231.5,398C 230.255,398.791 228.922,399.291 227.5,399.5C 215.88,397.521 203.88,396.854 191.5,397.5C 183.445,397.77 175.445,397.437 167.5,396.5C 166.233,393.728 166.233,391.061 167.5,388.5C 168.091,389.151 168.757,389.818 169.5,390.5C 199.159,391.5 228.826,391.833 258.5,391.5C 259.906,391.027 260.573,390.027 260.5,388.5C 261.222,388.082 261.722,387.416 262,386.5C 262.667,389.5 262.667,392.5 262,395.5C 261.005,396.066 260.172,396.733 259.5,397.5 Z"/></g>
<g><path style="opacity:1" fill="#464448" d="M 124.5,381.5 C 127.833,381.833 131.167,382.167 134.5,382.5C 136.631,383.314 138.964,383.814 141.5,384C 149.827,384.5 158.16,384.666 166.5,384.5C 160.347,385.328 154.013,385.828 147.5,386C 151.417,387.479 155.417,388.646 159.5,389.5C 161.081,391.142 161.747,393.142 161.5,395.5C 158.175,395.831 154.841,396.164 151.5,396.5C 140.702,394.484 129.869,393.151 119,392.5C 118,394.167 117,395.833 116,397.5C 115.329,396.748 114.496,396.414 113.5,396.5C 114.234,395.292 114.567,393.959 114.5,392.5C 114.328,391.508 114.662,390.842 115.5,390.5C 117.262,389.738 118.262,388.404 118.5,386.5C 119.573,383.764 121.573,382.097 124.5,381.5 Z"/></g>
<g><path style="opacity:1" fill="#222129" d="M 255.5,350.5 C 257.5,350.833 259.5,351.167 261.5,351.5C 261.5,362.5 261.5,373.5 261.5,384.5C 263.735,384.205 265.735,384.539 267.5,385.5C 265.91,385.628 264.577,386.295 263.5,387.5C 264.544,391.379 266.877,394.212 270.5,396C 279.393,395.399 288.559,395.566 298,396.5C 300.279,396.561 302.279,395.895 304,394.5C 306.138,395.43 307.305,397.097 307.5,399.5C 295.129,401.634 282.963,404.634 271,408.5C 266.657,406.959 264.49,408.959 264.5,414.5C 260.415,407.948 254.749,405.615 247.5,407.5C 245.143,407.663 242.81,407.497 240.5,407C 245.767,405.809 251.101,405.309 256.5,405.5C 256.5,404.5 256.5,403.5 256.5,402.5C 260.04,402.623 262.04,400.957 262.5,397.5C 261.5,397.5 260.5,397.5 259.5,397.5C 260.172,396.733 261.005,396.066 262,395.5C 262.667,392.5 262.667,389.5 262,386.5C 261.722,387.416 261.222,388.082 260.5,388.5C 259.305,388.134 258.639,387.301 258.5,386C 258.958,382.664 258.958,379.164 258.5,375.5C 258.3,371.638 258.966,367.971 260.5,364.5C 260.023,363.522 259.357,362.689 258.5,362C 260.513,360.209 260.513,358.875 258.5,358C 259.612,354.716 258.612,352.216 255.5,350.5 Z"/></g>
<g><path style="opacity:0.663" fill="#c1c0bf" d="M 114.5,392.5 C 114.567,393.959 114.234,395.292 113.5,396.5C 113.167,399.833 112.833,403.167 112.5,406.5C 111.853,405.726 111.52,404.726 111.5,403.5C 111.765,399.494 112.765,395.827 114.5,392.5 Z"/></g>
<g><path style="opacity:1" fill="#2f2d39" d="M 166.5,368.5 C 167.468,370.607 167.802,372.941 167.5,375.5C 167.34,380.044 167.34,384.378 167.5,388.5C 166.233,391.061 166.233,393.728 167.5,396.5C 166.387,397.946 166.22,399.613 167,401.5C 167.519,402.516 168.353,403.182 169.5,403.5C 177.956,406.113 186.623,407.446 195.5,407.5C 195.33,408.822 195.663,409.989 196.5,411C 200.391,411.753 204.058,411.253 207.5,409.5C 210.468,410.162 213.468,410.495 216.5,410.5C 216.285,412.179 216.952,413.179 218.5,413.5C 217.669,416.659 216.669,419.659 215.5,422.5C 215.631,421.761 215.464,421.094 215,420.5C 213.308,422.822 211.474,423.322 209.5,422C 207.19,421.503 204.857,421.337 202.5,421.5C 202.657,420.127 202.49,418.793 202,417.5C 199.263,418.61 196.429,418.777 193.5,418C 177.175,412.976 160.508,409.476 143.5,407.5C 139.818,407.665 136.152,407.499 132.5,407C 128.058,403.237 123.058,402.071 117.5,403.5C 116.209,402.527 116.209,401.527 117.5,400.5C 118.908,399.757 120.241,398.923 121.5,398C 123.664,397.567 125.664,398.067 127.5,399.5C 130.063,399.263 130.063,398.763 127.5,398C 137.361,399.218 147.361,400.552 157.5,402C 157.167,402.333 156.833,402.667 156.5,403C 158.897,404.724 161.231,404.724 163.5,403C 162.643,402.311 161.977,401.478 161.5,400.5C 163.402,398.937 164.402,396.937 164.5,394.5C 164.447,391.294 162.78,389.627 159.5,389.5C 155.417,388.646 151.417,387.479 147.5,386C 154.013,385.828 160.347,385.328 166.5,384.5C 166.5,379.167 166.5,373.833 166.5,368.5 Z"/></g>
<g><path style="opacity:0.998" fill="#151415" d="M 307.5,399.5 C 308.833,402.155 310.166,404.822 311.5,407.5C 311.167,408.167 310.833,408.833 310.5,409.5C 308.214,409.595 306.214,410.262 304.5,411.5C 304.167,411.5 303.833,411.5 303.5,411.5C 295.412,413.866 287.412,416.2 279.5,418.5C 277.958,419.301 276.292,419.634 274.5,419.5C 271.428,419.817 268.428,419.484 265.5,418.5C 264.754,417.264 264.421,415.93 264.5,414.5C 264.49,408.959 266.657,406.959 271,408.5C 282.963,404.634 295.129,401.634 307.5,399.5 Z"/></g>
<g><path style="opacity:1" fill="#1c1b1f" d="M 143.5,407.5 C 143.577,408.75 144.244,409.583 145.5,410C 164.352,412.853 183.018,416.353 201.5,420.5C 201.5,422.167 201.5,423.833 201.5,425.5C 205.321,424.814 208.488,425.814 211,428.5C 212.646,426.859 213.646,427.193 214,429.5C 214.383,428.944 214.883,428.611 215.5,428.5C 218.167,428.5 220.833,428.5 223.5,428.5C 223.5,424.167 223.5,419.833 223.5,415.5C 224.486,419.97 224.819,424.637 224.5,429.5C 223.127,429.343 221.793,429.51 220.5,430C 221.756,430.417 222.423,431.25 222.5,432.5C 222.167,432.5 221.833,432.5 221.5,432.5C 219.901,432.768 218.568,432.434 217.5,431.5C 216.791,430.596 215.791,430.263 214.5,430.5C 214.5,431.5 214.5,432.5 214.5,433.5C 210.481,433.354 206.481,433.021 202.5,432.5C 193.318,432.827 184.318,432.493 175.5,431.5C 179.212,431.342 182.712,431.342 186,431.5C 186.374,430.584 186.874,429.75 187.5,429C 191.673,426.729 195.34,427.229 198.5,430.5C 199.086,430.291 199.586,429.957 200,429.5C 200.667,427.5 200.667,425.5 200,423.5C 198.096,424.102 196.263,423.602 194.5,422C 190.833,421.667 187.167,421.333 183.5,421C 180.823,420.751 178.49,419.751 176.5,418C 170.833,417.667 165.167,417.333 159.5,417C 160.167,416.667 160.833,416.333 161.5,416C 154.568,414.24 147.234,413.24 139.5,413C 139.833,412.667 140.167,412.333 140.5,412C 134.31,410.179 127.976,409.012 121.5,408.5C 119.734,409.091 118.067,409.924 116.5,411C 117.167,411.333 117.833,411.667 118.5,412C 117.584,412.278 116.918,412.778 116.5,413.5C 115.833,413.167 115.167,412.833 114.5,412.5C 113.962,410.883 113.629,409.216 113.5,407.5C 114.833,406.167 116.167,404.833 117.5,403.5C 123.058,402.071 128.058,403.237 132.5,407C 136.152,407.499 139.818,407.665 143.5,407.5 Z"/></g>
<g><path style="opacity:0.004" fill="#dfdfdd" d="M 311.5,407.5 C 311.833,407.5 312.167,407.5 312.5,407.5C 312.5,408.833 311.833,409.5 310.5,409.5C 310.833,408.833 311.167,408.167 311.5,407.5 Z"/></g>
<g><path style="opacity:0.024" fill="#e4e4e4" d="M 112.5,407.5 C 112.833,407.5 113.167,407.5 113.5,407.5C 113.629,409.216 113.962,410.883 114.5,412.5C 112.787,411.365 112.12,409.698 112.5,407.5 Z"/></g>
<g><path style="opacity:0.052" fill="#dfdfdf" d="M 310.5,409.5 C 309.01,411.28 307.01,411.946 304.5,411.5C 306.214,410.262 308.214,409.595 310.5,409.5 Z"/></g>
<g><path style="opacity:1" fill="#25222c" d="M 143.5,407.5 C 160.508,409.476 177.175,412.976 193.5,418C 196.429,418.777 199.263,418.61 202,417.5C 202.49,418.793 202.657,420.127 202.5,421.5C 204.857,421.337 207.19,421.503 209.5,422C 211.474,423.322 213.308,422.822 215,420.5C 215.464,421.094 215.631,421.761 215.5,422.5C 215.5,424.5 215.5,426.5 215.5,428.5C 214.883,428.611 214.383,428.944 214,429.5C 213.646,427.193 212.646,426.859 211,428.5C 208.488,425.814 205.321,424.814 201.5,425.5C 201.5,423.833 201.5,422.167 201.5,420.5C 183.018,416.353 164.352,412.853 145.5,410C 144.244,409.583 143.577,408.75 143.5,407.5 Z"/></g>
<g><path style="opacity:0.012" fill="#d9d9d8" d="M 114.5,412.5 C 115.167,412.833 115.833,413.167 116.5,413.5C 116.833,414.167 117.167,414.833 117.5,415.5C 115.5,415.5 114.5,414.5 114.5,412.5 Z"/></g>
<g><path style="opacity:0.999" fill="#131212" d="M 175.5,431.5 C 173.461,430.089 172.461,428.089 172.5,425.5C 170.167,425.5 167.833,425.5 165.5,425.5C 165.167,425.5 164.833,425.5 164.5,425.5C 160.138,423.656 155.471,422.656 150.5,422.5C 149.833,422.5 149.167,422.5 148.5,422.5C 144.705,421.383 140.705,420.717 136.5,420.5C 134.485,419.076 132.152,418.41 129.5,418.5C 127.265,418.795 125.265,418.461 123.5,417.5C 121.898,415.926 119.898,415.259 117.5,415.5C 117.167,414.833 116.833,414.167 116.5,413.5C 116.918,412.778 117.584,412.278 118.5,412C 117.833,411.667 117.167,411.333 116.5,411C 118.067,409.924 119.734,409.091 121.5,408.5C 127.976,409.012 134.31,410.179 140.5,412C 140.167,412.333 139.833,412.667 139.5,413C 147.234,413.24 154.568,414.24 161.5,416C 160.833,416.333 160.167,416.667 159.5,417C 165.167,417.333 170.833,417.667 176.5,418C 178.49,419.751 180.823,420.751 183.5,421C 187.167,421.333 190.833,421.667 194.5,422C 196.263,423.602 198.096,424.102 200,423.5C 200.667,425.5 200.667,427.5 200,429.5C 199.586,429.957 199.086,430.291 198.5,430.5C 195.34,427.229 191.673,426.729 187.5,429C 186.874,429.75 186.374,430.584 186,431.5C 182.712,431.342 179.212,431.342 175.5,431.5 Z"/></g>
<g><path style="opacity:1" fill="#dbdbde" d="M 247.5,407.5 C 254.749,405.615 260.415,407.948 264.5,414.5C 264.421,415.93 264.754,417.264 265.5,418.5C 268.428,419.484 271.428,419.817 274.5,419.5C 272.052,420.473 269.385,420.806 266.5,420.5C 266.665,424.182 266.499,427.848 266,431.5C 264.961,432.71 263.794,433.71 262.5,434.5C 262.63,430.155 262.297,425.821 261.5,421.5C 261.58,416.379 259.58,412.379 255.5,409.5C 252.888,408.629 250.221,407.963 247.5,407.5 Z"/></g>
<g><path style="opacity:0.022" fill="#c6c6c6" d="M 117.5,415.5 C 119.898,415.259 121.898,415.926 123.5,417.5C 121.102,417.741 119.102,417.074 117.5,415.5 Z"/></g>
<g><path style="opacity:0.022" fill="#dad9d7" d="M 303.5,411.5 C 296.065,415.419 288.065,417.752 279.5,418.5C 287.412,416.2 295.412,413.866 303.5,411.5 Z"/></g>
<g><path style="opacity:1" fill="#a8a6af" d="M 240.5,412.5 C 240.938,412.435 241.272,412.601 241.5,413C 238.462,416.872 237.795,421.039 239.5,425.5C 239.128,428.923 240.461,431.423 243.5,433C 239.797,433.299 237.964,431.466 238,427.5C 237.333,423.167 237.333,418.833 238,414.5C 238.708,413.619 239.542,412.953 240.5,412.5 Z"/></g>
<g><path style="opacity:1" fill="#201f25" d="M 255.5,409.5 C 259.58,412.379 261.58,416.379 261.5,421.5C 261.5,422.833 261.5,424.167 261.5,425.5C 259.871,427.06 258.704,426.727 258,424.5C 254.865,425.137 251.865,424.471 249,422.5C 247.445,424.146 245.779,424.479 244,423.5C 243.536,424.094 243.369,424.761 243.5,425.5C 242.461,421.652 242.461,417.985 243.5,414.5C 242.914,414.709 242.414,415.043 242,415.5C 241.502,418.817 241.335,422.15 241.5,425.5C 240.686,423.369 240.186,421.036 240,418.5C 239.503,420.81 239.337,423.143 239.5,425.5C 237.795,421.039 238.462,416.872 241.5,413C 241.272,412.601 240.938,412.435 240.5,412.5C 240.56,411.957 240.893,411.624 241.5,411.5C 242.524,412.853 243.857,413.52 245.5,413.5C 245.351,414.552 245.517,415.552 246,416.5C 247.147,415.542 248.147,415.875 249,417.5C 253.231,416.442 255.398,413.775 255.5,409.5 Z"/></g>
<g><path style="opacity:0.667" fill="#a0a09e" d="M 129.5,418.5 C 132.152,418.41 134.485,419.076 136.5,420.5C 133.772,420.829 131.438,420.163 129.5,418.5 Z"/></g>
<g><path style="opacity:1" fill="#b8b7bf" d="M 243.5,425.5 C 243.081,428.325 244.081,430.491 246.5,432C 243.107,431.459 241.44,429.293 241.5,425.5C 241.335,422.15 241.502,418.817 242,415.5C 242.414,415.043 242.914,414.709 243.5,414.5C 242.461,417.985 242.461,421.652 243.5,425.5 Z"/></g>
<g><path style="opacity:0.059" fill="#ccccca" d="M 136.5,420.5 C 140.705,420.717 144.705,421.383 148.5,422.5C 144.183,422.917 140.183,422.25 136.5,420.5 Z"/></g>
<g><path style="opacity:0.058" fill="#e1e1df" d="M 150.5,422.5 C 155.471,422.656 160.138,423.656 164.5,425.5C 159.578,425.13 154.911,424.13 150.5,422.5 Z"/></g>
<g><path style="opacity:1" fill="#c39a8b" d="M 223.5,415.5 C 223.5,419.833 223.5,424.167 223.5,428.5C 220.833,428.5 218.167,428.5 215.5,428.5C 215.5,426.5 215.5,424.5 215.5,422.5C 216.669,419.659 217.669,416.659 218.5,413.5C 220.51,412.651 222.177,413.318 223.5,415.5 Z"/></g>
<g><path style="opacity:1" fill="#121116" d="M 167.5,396.5 C 175.445,397.437 183.445,397.77 191.5,397.5C 193.434,400.058 196.101,401.391 199.5,401.5C 206.193,402.683 212.859,402.683 219.5,401.5C 222.218,400.957 224.885,400.291 227.5,399.5C 228.922,399.291 230.255,398.791 231.5,398C 240.827,397.5 250.161,397.334 259.5,397.5C 260.5,397.5 261.5,397.5 262.5,397.5C 262.04,400.957 260.04,402.623 256.5,402.5C 256.5,403.5 256.5,404.5 256.5,405.5C 251.101,405.309 245.767,405.809 240.5,407C 242.81,407.497 245.143,407.663 247.5,407.5C 250.221,407.963 252.888,408.629 255.5,409.5C 255.398,413.775 253.231,416.442 249,417.5C 248.147,415.875 247.147,415.542 246,416.5C 245.517,415.552 245.351,414.552 245.5,413.5C 243.857,413.52 242.524,412.853 241.5,411.5C 240.893,411.624 240.56,411.957 240.5,412.5C 239.542,412.953 238.708,413.619 238,414.5C 237.333,418.833 237.333,423.167 238,427.5C 237.964,431.466 239.797,433.299 243.5,433C 240.461,431.423 239.128,428.923 239.5,425.5C 239.337,423.143 239.503,420.81 240,418.5C 240.186,421.036 240.686,423.369 241.5,425.5C 241.44,429.293 243.107,431.459 246.5,432C 244.081,430.491 243.081,428.325 243.5,425.5C 243.369,424.761 243.536,424.094 244,423.5C 245.779,424.479 247.445,424.146 249,422.5C 251.865,424.471 254.865,425.137 258,424.5C 258.704,426.727 259.871,427.06 261.5,425.5C 261.93,428.862 260.93,431.695 258.5,434C 247.172,434.5 235.838,434.667 224.5,434.5C 224.167,433.5 223.5,432.833 222.5,432.5C 222.423,431.25 221.756,430.417 220.5,430C 221.793,429.51 223.127,429.343 224.5,429.5C 224.819,424.637 224.486,419.97 223.5,415.5C 222.177,413.318 220.51,412.651 218.5,413.5C 216.952,413.179 216.285,412.179 216.5,410.5C 213.468,410.495 210.468,410.162 207.5,409.5C 204.058,411.253 200.391,411.753 196.5,411C 195.663,409.989 195.33,408.822 195.5,407.5C 186.623,407.446 177.956,406.113 169.5,403.5C 168.353,403.182 167.519,402.516 167,401.5C 166.22,399.613 166.387,397.946 167.5,396.5 Z"/></g>
<g><path style="opacity:1" fill="#afabb3" d="M 235.5,411.5 C 236.552,411.351 237.552,411.517 238.5,412C 235.008,413.877 233.674,416.877 234.5,421C 233.853,425.727 235.187,429.727 238.5,433C 235.617,433.795 234.117,432.629 234,429.5C 233.333,424.167 233.333,418.833 234,413.5C 234.717,412.956 235.217,412.289 235.5,411.5 Z"/></g>
<g><path style="opacity:1" fill="#182468" d="M 219.5,401.5 C 212.859,402.683 206.193,402.683 199.5,401.5C 198.909,400.849 198.243,400.182 197.5,399.5C 206.147,398.335 214.814,398.168 223.5,399C 221.68,399.2 220.347,400.034 219.5,401.5 Z"/></g>
<g><path style="opacity:1" fill="#141841" d="M 191.5,397.5 C 203.88,396.854 215.88,397.521 227.5,399.5C 224.885,400.291 222.218,400.957 219.5,401.5C 220.347,400.034 221.68,399.2 223.5,399C 214.814,398.168 206.147,398.335 197.5,399.5C 198.243,400.182 198.909,400.849 199.5,401.5C 196.101,401.391 193.434,400.058 191.5,397.5 Z"/></g>
<g><path style="opacity:0.212" fill="#cfcfcd" d="M 217.5,431.5 C 216.222,431.782 215.222,432.449 214.5,433.5C 214.5,432.5 214.5,431.5 214.5,430.5C 215.791,430.263 216.791,430.596 217.5,431.5 Z"/></g>
<g><path style="opacity:0.243" fill="#cccccb" d="M 165.5,425.5 C 167.833,425.5 170.167,425.5 172.5,425.5C 172.461,428.089 173.461,430.089 175.5,431.5C 184.318,432.493 193.318,432.827 202.5,432.5C 202.5,432.833 202.5,433.167 202.5,433.5C 192.494,433.666 182.494,433.5 172.5,433C 169.588,430.985 167.255,428.485 165.5,425.5 Z"/></g>
<g><path style="opacity:0.659" fill="#9d9d9c" d="M 202.5,433.5 C 202.5,433.167 202.5,432.833 202.5,432.5C 206.481,433.021 210.481,433.354 214.5,433.5C 214.38,434.586 213.713,435.253 212.5,435.5C 209.218,434.512 205.885,433.846 202.5,433.5 Z"/></g>
<g><path style="opacity:0.306" fill="#b1b1b1" d="M 221.5,432.5 C 221.833,432.5 222.167,432.5 222.5,432.5C 223.5,432.833 224.167,433.5 224.5,434.5C 222.973,434.573 221.973,433.906 221.5,432.5 Z"/></g>
<g><path style="opacity:0.541" fill="#abaaab" d="M 261.5,421.5 C 262.297,425.821 262.63,430.155 262.5,434.5C 249.833,435.833 237.167,435.833 224.5,434.5C 235.838,434.667 247.172,434.5 258.5,434C 260.93,431.695 261.93,428.862 261.5,425.5C 261.5,424.167 261.5,422.833 261.5,421.5 Z"/></g>
</svg>
